<?xml version="1.0" encoding="utf-8"?>
<!-- Generator: Adobe Illustrator 26.3.1, SVG Export Plug-In . SVG Version: 6.00 Build 0)  -->
<svg version="1.1" id="eNZsYelmcXW1" shape-rendering="geometricPrecision" text-rendering="geometricPrecision"
	 xmlns="http://www.w3.org/2000/svg" xmlns:xlink="http://www.w3.org/1999/xlink" x="0px" y="0px" viewBox="0 0 728.9 405.3"
	 style="enable-background:new 0 0 728.9 405.3;" xml:space="preserve">
<style type="text/css">
	.st0{fill:none;stroke:#B4B4B4;stroke-width:10;stroke-linecap:round;stroke-miterlimit:10;stroke-opacity:0.7059;}
	.st1{fill:none;stroke:#B4B4B4;stroke-width:8;stroke-linecap:round;stroke-miterlimit:10;stroke-opacity:0.71;}
	.st2{fill:none;stroke:#B4B4B4;stroke-width:8;stroke-linecap:round;stroke-miterlimit:10;stroke-opacity:0.7059;}
	.st3{fill:#FF0000;fill-opacity:0;}
	.st4{fill:none;stroke:#C8C8C8;stroke-width:10;stroke-linecap:round;stroke-miterlimit:10;}
	.st5{fill:#6D3E3E;}
	.st6{fill:#FFFFFF;}
</style>
<g>
	<path class="st0" d="M86.6,208.2h440"/>
	<g id="eNZsYelmcXW4">
		<path class="st1" d="M376.3,153.5l145.7,53"/>
		<path class="st1" d="M359.6,126.1c10.4,3.8,15.7,15.3,12,25.6s-15.3,15.7-25.6,12"/>
	</g>
	<g id="eNZsYelmcXW7">
		<path class="st2" d="M404,105.3L522.8,205"/>
		<path class="st2" d="M397.8,73.9c8.5,7.1,9.6,19.7,2.5,28.2s-19.7,9.6-28.2,2.5"/>
	</g>
	<g id="eNZsYelmcXW10">
		<path class="st2" d="M446.6,69.6l77.5,134.2"/>
		<path class="st2" d="M451.4,38c5.5,9.6,2.2,21.8-7.3,27.3s-21.8,2.2-27.3-7.3"/>
	</g>
	<g id="eNZsYelmcXW13">
		<path class="st2" d="M498.8,50.6l26.9,152.6"/>
		<path class="st2" d="M514.2,22.5c1.9,10.9-5.3,21.3-16.2,23.2s-21.3-5.3-23.2-16.2"/>
	</g>
	<g id="eNZsYelmcXW16">
		<path class="st2" d="M554.4,50.6l-26.9,152.6"/>
		<path class="st2" d="M578.4,29.5c-1.9,10.9-12.3,18.1-23.2,16.2S537.1,33.4,539,22.5"/>
	</g>
	<g id="eNZsYelmcXW19">
		<path class="st2" d="M606.6,69.6l-77.5,134.2"/>
		<path class="st2" d="M636.4,58c-5.5,9.6-17.8,12.8-27.3,7.3s-12.8-17.8-7.3-27.3"/>
	</g>
	<g id="eNZsYelmcXW22">
		<path class="st2" d="M649.2,105.3L530.4,205"/>
		<path class="st2" d="M681.2,104.6c-8.5,7.1-21.1,6-28.2-2.5s-6-21.1,2.5-28.2"/>
	</g>
	<g id="eNZsYelmcXW25">
		<path class="st2" d="M677,153.5l-145.7,53"/>
		<path class="st2" d="M707.3,163.7c-10.4,3.8-21.9-1.6-25.6-12s1.6-21.9,12-25.6"/>
	</g>
	<g id="eNZsYelmcXW28">
		<path class="st2" d="M686.6,208.2h-155"/>
		<path class="st2" d="M711.6,228.2c-11,0-20-9-20-20s9-20,20-20"/>
	</g>
	<g id="eNZsYelmcXW31">
		<path class="st2" d="M677,262.9l-145.7-53"/>
		<path class="st2" d="M693.6,290.2c-10.4-3.8-15.7-15.3-12-25.6c3.8-10.4,15.3-15.7,25.6-12"/>
	</g>
	<g id="eNZsYelmcXW34">
		<path class="st2" d="M649.2,311l-118.7-99.6"/>
		<path class="st2" d="M655.5,342.4c-8.5-7.1-9.6-19.7-2.5-28.2s19.7-9.6,28.2-2.5"/>
	</g>
	<g id="eNZsYelmcXW37">
		<path class="st2" d="M606.6,346.7l-77.5-134.2"/>
		<path class="st2" d="M601.8,378.4c-5.5-9.6-2.2-21.8,7.3-27.3s21.8-2.2,27.3,7.3"/>
	</g>
	<g id="eNZsYelmcXW40">
		<path class="st2" d="M554.4,365.7l-26.9-152.6"/>
		<path class="st2" d="M539,393.8c-1.9-10.9,5.3-21.3,16.2-23.2s21.3,5.3,23.2,16.2"/>
	</g>
	<g id="eNZsYelmcXW43">
		<path class="st2" d="M498.8,365.7l26.9-152.6"/>
		<path class="st3" d="M474.8,386.9c1.9-10.9,12.3-18.1,23.2-16.2s18.1,12.3,16.2,23.2l-19.7-3.5L474.8,386.9z"/>
		<path class="st2" d="M474.8,386.9c1.9-10.9,12.3-18.1,23.2-16.2s18.1,12.3,16.2,23.2"/>
	</g>
	<g id="eNZsYelmcXW47">
		<path class="st2" d="M446.6,346.7l77.5-134.2"/>
		<path class="st2" d="M416.8,358.4c5.5-9.6,17.8-12.8,27.3-7.3s12.8,17.8,7.3,27.3"/>
	</g>
	<g id="eNZsYelmcXW50">
		<path class="st2" d="M404,311l118.7-99.6"/>
		<path class="st2" d="M372,311.8c8.5-7.1,21.1-6,28.2,2.5s6,21.1-2.5,28.2"/>
	</g>
	<g id="eNZsYelmcXW53">
		<path class="st2" d="M376.3,262.9l145.7-53"/>
		<path class="st2" d="M345.9,252.7c10.4-3.8,21.9,1.6,25.6,12c3.8,10.4-1.6,21.9-12,25.6"/>
	</g>
	<path class="st4" d="M21.6,208.2c0-5.5,13.4-10,30-10s30,4.5,30,10s-13.4,10-30,10S21.6,213.7,21.6,208.2"/>
</g>
<script>
	<![CDATA[
		!function(t,n){"object"==typeof exports&&"undefined"!=typeof module?module.exports=n():"function"==typeof define&&define.amd?define(n):((t="undefined"!=typeof globalThis?globalThis:t||self).__SVGATOR_PLAYER__=t.__SVGATOR_PLAYER__||{},t.__SVGATOR_PLAYER__["5c7f360c"]=n())}(this,(function(){"use strict";function t(t,n){var e=Object.keys(t);if(Object.getOwnPropertySymbols){var r=Object.getOwnPropertySymbols(t);n&&(r=r.filter((function(n){return Object.getOwnPropertyDescriptor(t,n).enumerable}))),e.push.apply(e,r)}return e}function n(n){for(var e=1;e<arguments.length;e++){var r=null!=arguments[e]?arguments[e]:{};e%2?t(Object(r),!0).forEach((function(t){o(n,t,r[t])})):Object.getOwnPropertyDescriptors?Object.defineProperties(n,Object.getOwnPropertyDescriptors(r)):t(Object(r)).forEach((function(t){Object.defineProperty(n,t,Object.getOwnPropertyDescriptor(r,t))}))}return n}function e(t){return(e="function"==typeof Symbol&&"symbol"==typeof Symbol.iterator?function(t){return typeof t}:function(t){return t&&"function"==typeof Symbol&&t.constructor===Symbol&&t!==Symbol.prototype?"symbol":typeof t})(t)}function r(t,n){if(!(t instanceof n))throw new TypeError("Cannot call a class as a function")}function i(t,n){for(var e=0;e<n.length;e++){var r=n[e];r.enumerable=r.enumerable||!1,r.configurable=!0,"value"in r&&(r.writable=!0),Object.defineProperty(t,r.key,r)}}function u(t,n,e){return n&&i(t.prototype,n),e&&i(t,e),t}function o(t,n,e){return n in t?Object.defineProperty(t,n,{value:e,enumerable:!0,configurable:!0,writable:!0}):t[n]=e,t}function a(t){return(a=Object.setPrototypeOf?Object.getPrototypeOf:function(t){return t.__proto__||Object.getPrototypeOf(t)})(t)}function l(t,n){return(l=Object.setPrototypeOf||function(t,n){return t.__proto__=n,t})(t,n)}function s(){if("undefined"==typeof Reflect||!Reflect.construct)return!1;if(Reflect.construct.sham)return!1;if("function"==typeof Proxy)return!0;try{return Boolean.prototype.valueOf.call(Reflect.construct(Boolean,[],(function(){}))),!0}catch(t){return!1}}function f(t,n,e){return(f=s()?Reflect.construct:function(t,n,e){var r=[null];r.push.apply(r,n);var i=new(Function.bind.apply(t,r));return e&&l(i,e.prototype),i}).apply(null,arguments)}function c(t,n){if(n&&("object"==typeof n||"function"==typeof n))return n;if(void 0!==n)throw new TypeError("Derived constructors may only return object or undefined");return function(t){if(void 0===t)throw new ReferenceError("this hasn't been initialised - super() hasn't been called");return t}(t)}function h(t,n,e){return(h="undefined"!=typeof Reflect&&Reflect.get?Reflect.get:function(t,n,e){var r=function(t,n){for(;!Object.prototype.hasOwnProperty.call(t,n)&&null!==(t=a(t)););return t}(t,n);if(r){var i=Object.getOwnPropertyDescriptor(r,n);return i.get?i.get.call(e):i.value}})(t,n,e||t)}function v(t){return function(t){if(Array.isArray(t))return y(t)}(t)||function(t){if("undefined"!=typeof Symbol&&null!=t[Symbol.iterator]||null!=t["@@iterator"])return Array.from(t)}(t)||function(t,n){if(!t)return;if("string"==typeof t)return y(t,n);var e=Object.prototype.toString.call(t).slice(8,-1);"Object"===e&&t.constructor&&(e=t.constructor.name);if("Map"===e||"Set"===e)return Array.from(t);if("Arguments"===e||/^(?:Ui|I)nt(?:8|16|32)(?:Clamped)?Array$/.test(e))return y(t,n)}(t)||function(){throw new TypeError("Invalid attempt to spread non-iterable instance.\nIn order to be iterable, non-array objects must have a [Symbol.iterator]() method.")}()}function y(t,n){(null==n||n>t.length)&&(n=t.length);for(var e=0,r=new Array(n);e<n;e++)r[e]=t[e];return r}Number.isInteger||(Number.isInteger=function(t){return"number"==typeof t&&isFinite(t)&&Math.floor(t)===t}),Number.EPSILON||(Number.EPSILON=2220446049250313e-31);var g=d(Math.pow(10,-6));function d(t){var n=arguments.length>1&&void 0!==arguments[1]?arguments[1]:6;if(Number.isInteger(t))return t;var e=Math.pow(10,n);return Math.round((+t+Number.EPSILON)*e)/e}function p(t,n){var e=arguments.length>2&&void 0!==arguments[2]?arguments[2]:g;return Math.abs(t-n)<e}var m=Math.PI/180;function b(t){return t}function w(t,n,e){var r=1-e;return 3*e*r*(t*r+n*e)+e*e*e}function x(){var t=arguments.length>0&&void 0!==arguments[0]?arguments[0]:0,n=arguments.length>1&&void 0!==arguments[1]?arguments[1]:0,e=arguments.length>2&&void 0!==arguments[2]?arguments[2]:1,r=arguments.length>3&&void 0!==arguments[3]?arguments[3]:1;return t<0||t>1||e<0||e>1?null:p(t,n)&&p(e,r)?b:function(i){if(i<=0)return t>0?i*n/t:0===n&&e>0?i*r/e:0;if(i>=1)return e<1?1+(i-1)*(r-1)/(e-1):1===e&&t<1?1+(i-1)*(n-1)/(t-1):1;for(var u,o=0,a=1;o<a;){var l=w(t,e,u=(o+a)/2);if(p(i,l))break;l<i?o=u:a=u}return w(n,r,u)}}function A(){return 1}function k(t){return 1===t?1:0}function _(){var t=arguments.length>0&&void 0!==arguments[0]?arguments[0]:1,n=arguments.length>1&&void 0!==arguments[1]?arguments[1]:0;if(1===t){if(0===n)return k;if(1===n)return A}var e=1/t;return function(t){return t>=1?1:(t+=n*e)-t%e}}var S=Math.sin,O=Math.cos,j=Math.acos,M=Math.asin,P=Math.tan,E=Math.atan2,I=Math.PI/180,R=180/Math.PI,F=Math.sqrt,N=function(){function t(){var n=arguments.length>0&&void 0!==arguments[0]?arguments[0]:1,e=arguments.length>1&&void 0!==arguments[1]?arguments[1]:0,i=arguments.length>2&&void 0!==arguments[2]?arguments[2]:0,u=arguments.length>3&&void 0!==arguments[3]?arguments[3]:1,o=arguments.length>4&&void 0!==arguments[4]?arguments[4]:0,a=arguments.length>5&&void 0!==arguments[5]?arguments[5]:0;r(this,t),this.m=[n,e,i,u,o,a],this.i=null,this.w=null,this.s=null}return u(t,[{key:"determinant",get:function(){var t=this.m;return t[0]*t[3]-t[1]*t[2]}},{key:"isIdentity",get:function(){if(null===this.i){var t=this.m;this.i=1===t[0]&&0===t[1]&&0===t[2]&&1===t[3]&&0===t[4]&&0===t[5]}return this.i}},{key:"point",value:function(t,n){var e=this.m;return{x:e[0]*t+e[2]*n+e[4],y:e[1]*t+e[3]*n+e[5]}}},{key:"translateSelf",value:function(){var t=arguments.length>0&&void 0!==arguments[0]?arguments[0]:0,n=arguments.length>1&&void 0!==arguments[1]?arguments[1]:0;if(!t&&!n)return this;var e=this.m;return e[4]+=e[0]*t+e[2]*n,e[5]+=e[1]*t+e[3]*n,this.w=this.s=this.i=null,this}},{key:"rotateSelf",value:function(){var t=arguments.length>0&&void 0!==arguments[0]?arguments[0]:0;if(t%=360){var n=S(t*=I),e=O(t),r=this.m,i=r[0],u=r[1];r[0]=i*e+r[2]*n,r[1]=u*e+r[3]*n,r[2]=r[2]*e-i*n,r[3]=r[3]*e-u*n,this.w=this.s=this.i=null}return this}},{key:"scaleSelf",value:function(){var t=arguments.length>0&&void 0!==arguments[0]?arguments[0]:1,n=arguments.length>1&&void 0!==arguments[1]?arguments[1]:1;if(1!==t||1!==n){var e=this.m;e[0]*=t,e[1]*=t,e[2]*=n,e[3]*=n,this.w=this.s=this.i=null}return this}},{key:"skewSelf",value:function(t,n){if(n%=360,(t%=360)||n){var e=this.m,r=e[0],i=e[1],u=e[2],o=e[3];t&&(t=P(t*I),e[2]+=r*t,e[3]+=i*t),n&&(n=P(n*I),e[0]+=u*n,e[1]+=o*n),this.w=this.s=this.i=null}return this}},{key:"resetSelf",value:function(){var t=arguments.length>0&&void 0!==arguments[0]?arguments[0]:1,n=arguments.length>1&&void 0!==arguments[1]?arguments[1]:0,e=arguments.length>2&&void 0!==arguments[2]?arguments[2]:0,r=arguments.length>3&&void 0!==arguments[3]?arguments[3]:1,i=arguments.length>4&&void 0!==arguments[4]?arguments[4]:0,u=arguments.length>5&&void 0!==arguments[5]?arguments[5]:0,o=this.m;return o[0]=t,o[1]=n,o[2]=e,o[3]=r,o[4]=i,o[5]=u,this.w=this.s=this.i=null,this}},{key:"recomposeSelf",value:function(){var t=arguments.length>0&&void 0!==arguments[0]?arguments[0]:null,n=arguments.length>1&&void 0!==arguments[1]?arguments[1]:null,e=arguments.length>2&&void 0!==arguments[2]?arguments[2]:null,r=arguments.length>3&&void 0!==arguments[3]?arguments[3]:null,i=arguments.length>4&&void 0!==arguments[4]?arguments[4]:null;return this.isIdentity||this.resetSelf(),t&&(t.x||t.y)&&this.translateSelf(t.x,t.y),n&&this.rotateSelf(n),e&&(e.x&&this.skewSelf(e.x,0),e.y&&this.skewSelf(0,e.y)),!r||1===r.x&&1===r.y||this.scaleSelf(r.x,r.y),i&&(i.x||i.y)&&this.translateSelf(i.x,i.y),this}},{key:"decompose",value:function(){var t=arguments.length>0&&void 0!==arguments[0]?arguments[0]:0,n=arguments.length>1&&void 0!==arguments[1]?arguments[1]:0,e=this.m,r=e[0]*e[0]+e[1]*e[1],i=[[e[0],e[1]],[e[2],e[3]]],u=F(r);if(0===u)return{origin:{x:d(e[4]),y:d(e[5])},translate:{x:d(t),y:d(n)},scale:{x:0,y:0},skew:{x:0,y:0},rotate:0};i[0][0]/=u,i[0][1]/=u;var o=e[0]*e[3]-e[1]*e[2]<0;o&&(u=-u);var a=i[0][0]*i[1][0]+i[0][1]*i[1][1];i[1][0]-=i[0][0]*a,i[1][1]-=i[0][1]*a;var l=F(i[1][0]*i[1][0]+i[1][1]*i[1][1]);if(0===l)return{origin:{x:d(e[4]),y:d(e[5])},translate:{x:d(t),y:d(n)},scale:{x:d(u),y:0},skew:{x:0,y:0},rotate:0};i[1][0]/=l,i[1][1]/=l,a/=l;var s=0;return i[1][1]<0?(s=j(i[1][1])*R,i[0][1]<0&&(s=360-s)):s=M(i[0][1])*R,o&&(s=-s),a=E(a,F(i[0][0]*i[0][0]+i[0][1]*i[0][1]))*R,o&&(a=-a),{origin:{x:d(e[4]),y:d(e[5])},translate:{x:d(t),y:d(n)},scale:{x:d(u),y:d(l)},skew:{x:d(a),y:0},rotate:d(s)}}},{key:"clone",value:function(){var t=this.m;return new this.constructor(t[0],t[1],t[2],t[3],t[4],t[5])}},{key:"toString",value:function(){var t=arguments.length>0&&void 0!==arguments[0]?arguments[0]:" ";if(null===this.s){var n=this.m.map((function(t){return d(t)}));1===n[0]&&0===n[1]&&0===n[2]&&1===n[3]?this.s="translate("+n[4]+t+n[5]+")":this.s="matrix("+n.join(t)+")"}return this.s}}],[{key:"create",value:function(t){return t?Array.isArray(t)?f(this,v(t)):t instanceof this?t.clone():(new this).recomposeSelf(t.origin,t.rotate,t.skew,t.scale,t.translate):new this}}]),t}();function T(t,n,e){return t>=.5?e:n}function q(t,n,e){return 0===t||n===e?n:t*(e-n)+n}function B(t,n,e){var r=q(t,n,e);return r<=0?0:r}function L(t,n,e){var r=q(t,n,e);return r<=0?0:r>=1?1:r}function C(t,n,e){return 0===t?n:1===t?e:{x:q(t,n.x,e.x),y:q(t,n.y,e.y)}}function D(t,n,e){var r=function(t,n,e){return Math.round(q(t,n,e))}(t,n,e);return r<=0?0:r>=255?255:r}function z(t,n,e){return 0===t?n:1===t?e:{r:D(t,n.r,e.r),g:D(t,n.g,e.g),b:D(t,n.b,e.b),a:q(t,null==n.a?1:n.a,null==e.a?1:e.a)}}function V(t,n){for(var e=[],r=0;r<t;r++)e.push(n);return e}function G(t,n){if(--n<=0)return t;var e=(t=Object.assign([],t)).length;do{for(var r=0;r<e;r++)t.push(t[r])}while(--n>0);return t}var Y,$=function(){function t(n){r(this,t),this.list=n,this.length=n.length}return u(t,[{key:"setAttribute",value:function(t,n){for(var e=this.list,r=0;r<this.length;r++)e[r].setAttribute(t,n)}},{key:"removeAttribute",value:function(t){for(var n=this.list,e=0;e<this.length;e++)n[e].removeAttribute(t)}},{key:"style",value:function(t,n){for(var e=this.list,r=0;r<this.length;r++)e[r].style[t]=n}}]),t}(),U=/-./g,Q=function(t,n){return n.toUpperCase()};function H(t){return"function"==typeof t?t:T}function J(t){return t?"function"==typeof t?t:Array.isArray(t)?function(t){var n=arguments.length>1&&void 0!==arguments[1]?arguments[1]:b;if(!Array.isArray(t))return n;switch(t.length){case 1:return _(t[0])||n;case 2:return _(t[0],t[1])||n;case 4:return x(t[0],t[1],t[2],t[3])||n}return n}(t,null):function(t,n){var e=arguments.length>2&&void 0!==arguments[2]?arguments[2]:b;switch(t){case"linear":return b;case"steps":return _(n.steps||1,n.jump||0)||e;case"bezier":case"cubic-bezier":return x(n.x1||0,n.y1||0,n.x2||0,n.y2||0)||e}return e}(t.type,t.value,null):null}function Z(t,n,e){var r=arguments.length>3&&void 0!==arguments[3]&&arguments[3],i=n.length-1;if(t<=n[0].t)return r?[0,0,n[0].v]:n[0].v;if(t>=n[i].t)return r?[i,1,n[i].v]:n[i].v;var u,o=n[0],a=null;for(u=1;u<=i;u++){if(!(t>n[u].t)){a=n[u];break}o=n[u]}return null==a?r?[i,1,n[i].v]:n[i].v:o.t===a.t?r?[u,1,a.v]:a.v:(t=(t-o.t)/(a.t-o.t),o.e&&(t=o.e(t)),r?[u,t,e(t,o.v,a.v)]:e(t,o.v,a.v))}function K(t,n){var e=arguments.length>2&&void 0!==arguments[2]?arguments[2]:null;return t&&t.length?"function"!=typeof n?null:("function"!=typeof e&&(e=null),function(r){var i=Z(r,t,n);return null!=i&&e&&(i=e(i)),i}):null}function W(t,n){return t.t-n.t}function X(t,n,r,i,u){var o,a="@"===r[0],l="#"===r[0],s=Y[r],f=T;switch(a?(o=r.substr(1),r=o.replace(U,Q)):l&&(r=r.substr(1)),e(s)){case"function":if(f=s(i,u,Z,J,r,a,n,t),l)return f;break;case"string":f=K(i,H(s));break;case"object":if((f=K(i,H(s.i),s.f))&&"function"==typeof s.u)return s.u(n,f,r,a,t)}return f?function(t,n,e){if(arguments.length>3&&void 0!==arguments[3]&&arguments[3])return t instanceof $?function(r){return t.style(n,e(r))}:function(r){return t.style[n]=e(r)};if(Array.isArray(n)){var r=n.length;return function(i){var u=e(i);if(null==u)for(var o=0;o<r;o++)t[o].removeAttribute(n);else for(var a=0;a<r;a++)t[a].setAttribute(n,u)}}return function(r){var i=e(r);null==i?t.removeAttribute(n):t.setAttribute(n,i)}}(n,r,f,a):null}function tt(t,n,r,i){if(!i||"object"!==e(i))return null;var u=null,o=null;return Array.isArray(i)?o=function(t){if(!t||!t.length)return null;for(var n=0;n<t.length;n++)t[n].e&&(t[n].e=J(t[n].e));return t.sort(W)}(i):(o=i.keys,u=i.data||null),o?X(t,n,r,o,u):null}function nt(t,n,e){if(!e)return null;var r=[];for(var i in e)if(e.hasOwnProperty(i)){var u=tt(t,n,i,e[i]);u&&r.push(u)}return r.length?r:null}function et(t,n){if(!n.settings.duration||n.settings.duration<0)return null;var e,r,i,u,o,a=function(t,n){if(!n)return null;var e=[];if(Array.isArray(n))for(var r=n.length,i=0;i<r;i++){var u=n[i];if(2===u.length){var o=null;if("string"==typeof u[0])o=t.getElementById(u[0]);else if(Array.isArray(u[0])){o=[];for(var a=0;a<u[0].length;a++)if("string"==typeof u[0][a]){var l=t.getElementById(u[0][a]);l&&o.push(l)}o=o.length?1===o.length?o[0]:new $(o):null}if(o){var s=nt(t,o,u[1]);s&&(e=e.concat(s))}}}else for(var f in n)if(n.hasOwnProperty(f)){var c=t.getElementById(f);if(c){var h=nt(t,c,n[f]);h&&(e=e.concat(h))}}return e.length?e:null}(t,n.elements);return a?(e=a,r=n.settings,i=r.duration,u=e.length,o=null,function(t,n){var a=r.iterations||1/0,l=(r.alternate&&a%2==0)^r.direction>0?i:0,s=t%i,f=1+(t-s)/i;n*=r.direction,r.alternate&&f%2==0&&(n=-n);var c=!1;if(f>a)s=l,c=!0,-1===r.fill&&(s=r.direction>0?0:i);else if(n<0&&(s=i-s),s===o)return!1;o=s;for(var h=0;h<u;h++)e[h](s);return c}):null}function rt(t,n){if(Y=n,!t||!t.root||!Array.isArray(t.animations))return null;var e=function(t){for(var n=document.getElementsByTagName("svg"),e=0;e<n.length;e++)if(n[e].id===t.root&&!n[e].svgatorAnimation)return n[e].svgatorAnimation=!0,n[e];return null}(t);if(!e)return null;var r=t.animations.map((function(t){return et(e,t)})).filter((function(t){return!!t}));return r.length?{svg:e,animations:r,animationSettings:t.animationSettings,options:t.options||void 0}:null}function it(t){return+("0x"+(t.replace(/[^0-9a-fA-F]+/g,"")||27))}function ut(t,n,e){return!t||!e||n>t.length?t:t.substring(0,n)+ut(t.substring(n+1),e,e)}function ot(t){var n=arguments.length>1&&void 0!==arguments[1]?arguments[1]:27;return!t||t%n?t%n:ot(t/n,n)}function at(t,n,e){if(t&&t.length){var r=it(e),i=it(n),u=ot(r)+5,o=ut(t,ot(r,5),u);return o=o.replace(/\x7c$/g,"==").replace(/\x2f$/g,"="),o=function(t,n,e){var r=+("0x"+t.substring(0,4));t=t.substring(4);for(var i=n%r+e%27,u=[],o=0;o<t.length;o+=2)if("|"!==t[o]){var a=+("0x"+t[o]+t[o+1])-i;u.push(a)}else{var l=+("0x"+t.substring(o+1,o+1+4))-i;o+=3,u.push(l)}return String.fromCharCode.apply(String,u)}(o=(o=atob(o)).replace(/[\x41-\x5A]/g,""),i,r),o=JSON.parse(o)}}var lt=[{key:"alternate",def:!1},{key:"fill",def:1},{key:"iterations",def:0},{key:"direction",def:1},{key:"speed",def:1},{key:"fps",def:100}],st=function(){function t(n,e){var i=this,u=arguments.length>2&&void 0!==arguments[2]?arguments[2]:null;r(this,t),this._id=0,this._running=!1,this._rollingBack=!1,this._animations=n,this._settings=e,(!u||u<"2022-05-02")&&delete this._settings.speed,lt.forEach((function(t){i._settings[t.key]=i._settings[t.key]||t.def})),this.duration=e.duration,this.offset=e.offset||0,this.rollbackStartOffset=0}return u(t,[{key:"alternate",get:function(){return this._settings.alternate}},{key:"fill",get:function(){return this._settings.fill}},{key:"iterations",get:function(){return this._settings.iterations}},{key:"direction",get:function(){return this._settings.direction}},{key:"speed",get:function(){return this._settings.speed}},{key:"fps",get:function(){return this._settings.fps}},{key:"maxFiniteDuration",get:function(){return this.iterations>0?this.iterations*this.duration:this.duration}},{key:"_apply",value:function(t){for(var n=arguments.length>1&&void 0!==arguments[1]?arguments[1]:{},e=this._animations,r=e.length,i=0,u=0;u<r;u++)n[u]?i++:(n[u]=e[u](t,1),n[u]&&i++);return i}},{key:"_rollback",value:function(t){var n=this,e=1/0,r=null;this.rollbackStartOffset=t,this._rollingBack=!0,this._running=!0;this._id=window.requestAnimationFrame((function i(u){if(n._rollingBack){null==r&&(r=u);var o=Math.round(t-(u-r)*n.speed);if(o>n.duration&&e!==1/0){var a=!!n.alternate&&o/n.duration%2>1,l=o%n.duration;o=(l+=a?n.duration:0)||n.duration}var s=(n.fps?1e3/n.fps:0)*n.speed,f=Math.max(0,o);f<e-s&&(n.offset=f,e=f,n._apply(f));var c=n.iterations>0&&-1===n.fill&&o>=n.maxFiniteDuration;(o<=0||n.offset<o||c)&&n.stop(),n._id=window.requestAnimationFrame(i)}}))}},{key:"_start",value:function(){var t=this,n=arguments.length>0&&void 0!==arguments[0]?arguments[0]:0,e=-1/0,r=null,i={};this._running=!0;var u=function u(o){null==r&&(r=o);var a=Math.round((o-r)*t.speed+n),l=(t.fps?1e3/t.fps:0)*t.speed;if(a>e+l&&!t._rollingBack&&(t.offset=a,e=a,t._apply(a,i)===t._animations.length))return void t.pause(!0);t._id=window.requestAnimationFrame(u)};this._id=window.requestAnimationFrame(u)}},{key:"_pause",value:function(){this._id&&window.cancelAnimationFrame(this._id),this._running=!1}},{key:"play",value:function(){if(!this._running)return this._rollingBack?this._rollback(this.offset):this._start(this.offset)}},{key:"stop",value:function(){this._pause(),this.offset=0,this.rollbackStartOffset=0,this._rollingBack=!1,this._apply(0)}},{key:"reachedToEnd",value:function(){return this.iterations>0&&this.offset>=this.iterations*this.duration}},{key:"restart",value:function(){var t=arguments.length>0&&void 0!==arguments[0]&&arguments[0];this.stop(t),this.play(t)}},{key:"pause",value:function(){this._pause()}},{key:"reverse",value:function(){this.direction=-this.direction}}],[{key:"build",value:function(t,n){delete t.animationSettings,t.options=at(t.options,t.root,"5c7f360c"),t.animations.map((function(n){n.settings=at(n.s,t.root,"5c7f360c"),delete n.s,t.animationSettings||(t.animationSettings=n.settings)}));var e=t.version;if(!(t=rt(t,n)))return null;var r=t.options||{},i=new this(t.animations,t.animationSettings,e);return{el:t.svg,options:r,player:i}}},{key:"push",value:function(t){return this.build(t)}},{key:"init",value:function(){var t=this,n=window.__SVGATOR_PLAYER__&&window.__SVGATOR_PLAYER__["5c7f360c"];Array.isArray(n)&&n.splice(0).forEach((function(n){return t.build(n)}))}}]),t}();function ft(t){return d(t)+""}function ct(t){var n=arguments.length>1&&void 0!==arguments[1]?arguments[1]:" ";return t&&t.length?t.map(ft).join(n):""}function ht(t){if(!t)return"transparent";if(null==t.a||t.a>=1){var n=function(t){return 1===(t=parseInt(t).toString(16)).length?"0"+t:t},e=function(t){return t.charAt(0)===t.charAt(1)},r=n(t.r),i=n(t.g),u=n(t.b);return e(r)&&e(i)&&e(u)&&(r=r.charAt(0),i=i.charAt(0),u=u.charAt(0)),"#"+r+i+u}return"rgba("+t.r+","+t.g+","+t.b+","+t.a+")"}function vt(t){return t?"url(#"+t+")":"none"}!function(){for(var t=0,n=["ms","moz","webkit","o"],e=0;e<n.length&&!window.requestAnimationFrame;++e)window.requestAnimationFrame=window[n[e]+"RequestAnimationFrame"],window.cancelAnimationFrame=window[n[e]+"CancelAnimationFrame"]||window[n[e]+"CancelRequestAnimationFrame"];window.requestAnimationFrame||(window.requestAnimationFrame=function(n){var e=Date.now(),r=Math.max(0,16-(e-t)),i=window.setTimeout((function(){n(e+r)}),r);return t=e+r,i},window.cancelAnimationFrame=window.clearTimeout)}();var yt={f:null,i:function(t,n,e){return 0===t?n:1===t?e:{x:B(t,n.x,e.x),y:B(t,n.y,e.y)}},u:function(t,n){return function(e){var r=n(e);t.setAttribute("rx",ft(r.x)),t.setAttribute("ry",ft(r.y))}}},gt={f:null,i:function(t,n,e){return 0===t?n:1===t?e:{width:B(t,n.width,e.width),height:B(t,n.height,e.height)}},u:function(t,n){return function(e){var r=n(e);t.setAttribute("width",ft(r.width)),t.setAttribute("height",ft(r.height))}}};Object.freeze({M:2,L:2,Z:0,H:1,V:1,C:6,Q:4,T:2,S:4,A:7});var dt={},pt=null;function mt(t){var n=function(){if(pt)return pt;if("object"!==("undefined"==typeof document?"undefined":e(document))||!document.createElementNS)return{};var t=document.createElementNS("http://www.w3.org/2000/svg","svg");return t&&t.style?(t.style.position="absolute",t.style.opacity="0.01",t.style.zIndex="-9999",t.style.left="-9999px",t.style.width="1px",t.style.height="1px",pt={svg:t}):{}}().svg;if(!n)return function(t){return null};var r=document.createElementNS(n.namespaceURI,"path");r.setAttributeNS(null,"d",t),r.setAttributeNS(null,"fill","none"),r.setAttributeNS(null,"stroke","none"),n.appendChild(r);var i=r.getTotalLength();return function(t){var n=r.getPointAtLength(i*t);return{x:n.x,y:n.y}}}function bt(t){return dt[t]?dt[t]:dt[t]=mt(t)}function wt(t,n,e,r){if(!t||!r)return!1;var i=["M",t.x,t.y];if(n&&e&&(i.push("C"),i.push(n.x),i.push(n.y),i.push(e.x),i.push(e.y)),n?!e:e){var u=n||e;i.push("Q"),i.push(u.x),i.push(u.y)}return n||e||i.push("L"),i.push(r.x),i.push(r.y),i.join(" ")}function xt(t,n,e,r){var i=arguments.length>4&&void 0!==arguments[4]?arguments[4]:1,u=wt(t,n,e,r),o=bt(u);try{return o(i)}catch(t){return null}}function At(t,n,e){return t+(n-t)*e}function kt(t,n,e){var r=arguments.length>3&&void 0!==arguments[3]&&arguments[3],i={x:At(t.x,n.x,e),y:At(t.y,n.y,e)};return r&&(i.a=_t(t,n)),i}function _t(t,n){return Math.atan2(n.y-t.y,n.x-t.x)}function St(t,n,e,r){var i=1-r;return i*i*t+2*i*r*n+r*r*e}function Ot(t,n,e,r){return 2*(1-r)*(n-t)+2*r*(e-n)}function jt(t,n,e,r){var i=arguments.length>4&&void 0!==arguments[4]&&arguments[4],u=xt(t,n,null,e,r);return u||(u={x:St(t.x,n.x,e.x,r),y:St(t.y,n.y,e.y,r)}),i&&(u.a=Mt(t,n,e,r)),u}function Mt(t,n,e,r){return Math.atan2(Ot(t.y,n.y,e.y,r),Ot(t.x,n.x,e.x,r))}function Pt(t,n,e,r,i){var u=i*i;return i*u*(r-t+3*(n-e))+3*u*(t+e-2*n)+3*i*(n-t)+t}function Et(t,n,e,r,i){var u=1-i;return 3*(u*u*(n-t)+2*u*i*(e-n)+i*i*(r-e))}function It(t,n,e,r,i){var u=arguments.length>5&&void 0!==arguments[5]&&arguments[5],o=xt(t,n,e,r,i);return o||(o={x:Pt(t.x,n.x,e.x,r.x,i),y:Pt(t.y,n.y,e.y,r.y,i)}),u&&(o.a=Rt(t,n,e,r,i)),o}function Rt(t,n,e,r,i){return Math.atan2(Et(t.y,n.y,e.y,r.y,i),Et(t.x,n.x,e.x,r.x,i))}function Ft(t,n,e){var r=arguments.length>3&&void 0!==arguments[3]&&arguments[3];if(Tt(n)){if(qt(e))return jt(n,e.start,e,t,r)}else if(Tt(e)){if(Bt(n))return jt(n,n.end,e,t,r)}else{if(Bt(n))return qt(e)?It(n,n.end,e.start,e,t,r):jt(n,n.end,e,t,r);if(qt(e))return jt(n,e.start,e,t,r)}return kt(n,e,t,r)}function Nt(t,n,e){var r=Ft(t,n,e,!0);return r.a=function(t){return arguments.length>1&&void 0!==arguments[1]&&arguments[1]?t+Math.PI:t}(r.a)/m,r}function Tt(t){return!t.type||"corner"===t.type}function qt(t){return null!=t.start&&!Tt(t)}function Bt(t){return null!=t.end&&!Tt(t)}var Lt=new N;var Ct={f:ft,i:q},Dt={f:ft,i:L};function zt(t,n,e){return t.map((function(t){return function(t,n,e){var r=t.v;if(!r||"g"!==r.t||r.s||!r.v||!r.r)return t;var i=e.getElementById(r.r),u=i&&i.querySelectorAll("stop")||[];return r.s=r.v.map((function(t,n){var e=u[n]&&u[n].getAttribute("offset");return{c:t,o:e=d(parseInt(e)/100)}})),delete r.v,t}(t,0,e)}))}var Vt={gt:"gradientTransform",c:{x:"cx",y:"cy"},rd:"r",f:{x:"x1",y:"y1"},to:{x:"x2",y:"y2"}};function Gt(t,n,r,i,u,o,a,l){return zt(t,0,l),n=function(t,n,e){for(var r,i,u,o=t.length-1,a={},l=0;l<=o;l++)(r=t[l]).e&&(r.e=n(r.e)),r.v&&"g"===(i=r.v).t&&i.r&&(u=e.getElementById(i.r))&&(a[i.r]={e:u,s:u.querySelectorAll("stop")});return a}(t,i,l),function(i){var u=r(i,t,Yt);if(!u)return"none";if("c"===u.t)return ht(u.v);if("g"===u.t){if(!n[u.r])return vt(u.r);var o=n[u.r];return function(t,n){for(var e=t.s,r=e.length;r<n.length;r++){var i=e[e.length-1].cloneNode();i.id=Qt(i.id),t.e.appendChild(i),e=t.s=t.e.querySelectorAll("stop")}for(var u=0,o=e.length,a=n.length-1;u<o;u++)e[u].setAttribute("stop-color",ht(n[Math.min(u,a)].c)),e[u].setAttribute("offset",n[Math.min(u,a)].o)}(o,u.s),Object.keys(Vt).forEach((function(t){if(void 0!==u[t])if("object"!==e(Vt[t])){var n,r="gt"===t?(n=u[t],Array.isArray(n)?"matrix("+n.join(" ")+")":""):u[t],i=Vt[t];o.e.setAttribute(i,r)}else Object.keys(Vt[t]).forEach((function(n){if(void 0!==u[t][n]){var e=u[t][n],r=Vt[t][n];o.e.setAttribute(r,e)}}))})),vt(u.r)}return"none"}}function Yt(t,e,r){if(0===t)return e;if(1===t)return r;if(e&&r){var i=e.t;if(i===r.t)switch(e.t){case"c":return{t:i,v:z(t,e.v,r.v)};case"g":if(e.r===r.r){var u={t:i,s:$t(t,e.s,r.s),r:e.r};return e.gt&&r.gt&&(u.gt=function(t,n,e){var r=n.length;if(r!==e.length)return T(t,n,e);for(var i=new Array(r),u=0;u<r;u++)i[u]=q(t,n[u],e[u]);return i}(t,e.gt,r.gt)),e.c?(u.c=C(t,e.c,r.c),u.rd=B(t,e.rd,r.rd)):e.f&&(u.f=C(t,e.f,r.f),u.to=C(t,e.to,r.to)),u}}if("c"===e.t&&"g"===r.t||"c"===r.t&&"g"===e.t){var o="c"===e.t?e:r,a="g"===e.t?n({},e):n({},r),l=a.s.map((function(t){return{c:o.v,o:t.o}}));return a.s="c"===e.t?$t(t,l,a.s):$t(t,a.s,l),a}}return T(t,e,r)}function $t(t,n,e){if(n.length===e.length)return n.map((function(n,r){return Ut(t,n,e[r])}));for(var r=Math.max(n.length,e.length),i=[],u=0;u<r;u++){var o=Ut(t,n[Math.min(u,n.length-1)],e[Math.min(u,e.length-1)]);i.push(o)}return i}function Ut(t,n,e){return{o:L(t,n.o,e.o||0),c:z(t,n.c,e.c||{})}}function Qt(t){return t.replace(/-fill-([0-9]+)$/,(function(t,n){return"-fill-"+(+n+1)}))}var Ht={fill:Gt,"fill-opacity":Dt,stroke:Gt,"stroke-opacity":Dt,"stroke-width":Ct,"stroke-dashoffset":{f:ft,i:q},"stroke-dasharray":{f:function(t){var n=arguments.length>1&&void 0!==arguments[1]?arguments[1]:" ";return t&&t.length>0&&(t=t.map((function(t){return d(t,4)}))),ct(t,n)},i:function(t,n,e){var r,i,u,o=n.length,a=e.length;if(o!==a)if(0===o)n=V(o=a,0);else if(0===a)a=o,e=V(o,0);else{var l=(u=(r=o)*(i=a)/function(t,n){for(var e;n;)e=n,n=t%n,t=e;return t||1}(r,i))<0?-u:u;n=G(n,Math.floor(l/o)),e=G(e,Math.floor(l/a)),o=a=l}for(var s=[],f=0;f<o;f++)s.push(d(B(t,n[f],e[f])));return s}},opacity:Dt,transform:function(t,n,r,i){if(!(t=function(t,n){if(!t||"object"!==e(t))return null;var r=!1;for(var i in t)t.hasOwnProperty(i)&&(t[i]&&t[i].length?(t[i].forEach((function(t){t.e&&(t.e=n(t.e))})),r=!0):delete t[i]);return r?t:null}(t,i)))return null;var u=function(e,i,u){var o=arguments.length>3&&void 0!==arguments[3]?arguments[3]:null;return t[e]?r(i,t[e],u):n&&n[e]?n[e]:o};return n&&n.a&&t.o?function(n){var e=r(n,t.o,Nt);return Lt.recomposeSelf(e,u("r",n,q,0)+e.a,u("k",n,C),u("s",n,C),u("t",n,C)).toString()}:function(t){return Lt.recomposeSelf(u("o",t,Ft,null),u("r",t,q,0),u("k",t,C),u("s",t,C),u("t",t,C)).toString()}},r:Ct,"#size":gt,"#radius":yt,_:function(t,n){if(Array.isArray(t))for(var e=0;e<t.length;e++)this[t[e]]=n;else this[t]=n}},Jt=function(t){!function(t,n){if("function"!=typeof n&&null!==n)throw new TypeError("Super expression must either be null or a function");t.prototype=Object.create(n&&n.prototype,{constructor:{value:t,writable:!0,configurable:!0}}),n&&l(t,n)}(o,t);var n,e,i=(n=o,e=s(),function(){var t,r=a(n);if(e){var i=a(this).constructor;t=Reflect.construct(r,arguments,i)}else t=r.apply(this,arguments);return c(this,t)});function o(){return r(this,o),i.apply(this,arguments)}return u(o,null,[{key:"build",value:function(t){var n=h(a(o),"build",this).call(this,t,Ht);if(!n)return null;n.el,n.options,function(t,n,e){t.play()}(n.player)}}]),o}(st);return Jt.init(),Jt}));
(function(s,i,o,w,a,b){w[o]=w[o]||{};w[o][s]=w[o][s]||[];w[o][s].push(i);})('5c7f360c',{"root":"eNZsYelmcXW1","version":"2022-05-04","animations":[{"elements":{"eNZsYelmcXW4":{"opacity":[{"t":0,"v":1,"e":[1,0]},{"t":50,"v":0.5,"e":[1,0]},{"t":100,"v":1,"e":[1,0]}]},"eNZsYelmcXW7":{"opacity":[{"t":50,"v":1,"e":[1,0]},{"t":100,"v":0.5,"e":[1,0]},{"t":150,"v":1,"e":[1,0]}]},"eNZsYelmcXW10":{"opacity":[{"t":100,"v":1,"e":[1,0]},{"t":150,"v":0.5,"e":[1,0]},{"t":200,"v":1,"e":[1,0]}]},"eNZsYelmcXW13":{"opacity":[{"t":150,"v":1,"e":[1,0]},{"t":200,"v":0.5,"e":[1,0]},{"t":250,"v":1,"e":[1,0]}]},"eNZsYelmcXW16":{"opacity":[{"t":200,"v":1,"e":[1,0]},{"t":250,"v":0.5,"e":[1,0]},{"t":300,"v":1,"e":[1,0]}]},"eNZsYelmcXW19":{"opacity":[{"t":250,"v":1,"e":[1,0]},{"t":300,"v":0.5,"e":[1,0]},{"t":350,"v":1,"e":[1,0]}]},"eNZsYelmcXW22":{"opacity":[{"t":300,"v":1,"e":[1,0]},{"t":350,"v":0.5,"e":[1,0]},{"t":400,"v":1,"e":[1,0]}]},"eNZsYelmcXW25":{"opacity":[{"t":350,"v":1,"e":[1,0]},{"t":400,"v":0.5,"e":[1,0]},{"t":450,"v":1,"e":[1,0]}]},"eNZsYelmcXW28":{"opacity":[{"t":400,"v":1,"e":[1,0]},{"t":450,"v":0.5,"e":[1,0]},{"t":500,"v":1,"e":[1,0]}]},"eNZsYelmcXW31":{"opacity":[{"t":450,"v":1,"e":[1,0]},{"t":500,"v":0.5,"e":[1,0]},{"t":550,"v":1,"e":[1,0]}]},"eNZsYelmcXW34":{"opacity":[{"t":500,"v":1,"e":[1,0]},{"t":550,"v":0.5,"e":[1,0]},{"t":600,"v":1,"e":[1,0]}]},"eNZsYelmcXW37":{"opacity":[{"t":550,"v":1,"e":[1,0]},{"t":600,"v":0.5,"e":[1,0]},{"t":650,"v":1,"e":[1,0]}]},"eNZsYelmcXW40":{"opacity":[{"t":600,"v":1,"e":[1,0]},{"t":650,"v":0.5,"e":[1,0]},{"t":700,"v":1,"e":[1,0]}]},"eNZsYelmcXW43":{"opacity":[{"t":650,"v":1,"e":[1,0]},{"t":700,"v":0.5,"e":[1,0]},{"t":750,"v":1,"e":[1,0]}]},"eNZsYelmcXW47":{"opacity":[{"t":700,"v":1,"e":[1,0]},{"t":750,"v":0.5,"e":[1,0]},{"t":800,"v":1,"e":[1,0]}]},"eNZsYelmcXW50":{"opacity":[{"t":750,"v":1,"e":[1,0]},{"t":800,"v":0.5,"e":[1,0]},{"t":850,"v":1,"e":[1,0]}]},"eNZsYelmcXW53":{"opacity":[{"t":800,"v":1,"e":[1,0]},{"t":850,"v":0.5,"e":[1,0]},{"t":900,"v":1,"e":[1,0]}]}},"s":"MLDA1MmE2NGQ4ZmEwOWIQ4YzlmOTQ5YTk5NGQX2NTY0NWI1YjU3NGRHSOGY5NDlkOTA4ZTlmORTQ5YTk5NGQ2NTVjNTMc0ZEc5NDlmOTA5ZDhPjOWY5NDlhOTk5ZTRkSNjU1YjU3NGQ5MTk0OWTdDOTc0ZDY1NWM1NzXRkOGM5NzlmOTA5ZDkI5OGM5ZjkwNGQ2NTkxROGM5NzllOTA1NzRkOGWU5YjkwOTA4Zkw0ZDYY1NWNhOA|"}],"options":"MYDAxMDg4MmY4MDgxNmAU3ZjgxMmY0N0MyZjcO5N2M2ZTcxMmY4YQ|"},'__SVGATOR_PLAYER__',window)
		]]>
</script>
<g>
	<g>
		<g>
			<path class="st5" d="M136.6,190c-3.8,0-9-0.2-15.6-0.7c-6.6-0.4-14.3-1.6-22.7-3.3l-1.3-0.3l1.6-17.7l1.4,0
				c6.5,0.2,12,0.4,16.4,0.6c4.4,0.2,8.2,0.2,11.4,0.2h9c5,0,8.9-0.3,11.6-1c2.5-0.6,4.1-1.7,5.1-3.4c1-1.9,1.6-4.7,1.6-8.4
				c0-3.2-0.4-5.7-1.1-7.5c-0.7-1.6-1.8-2.9-3.4-3.9c-1.8-1-4.1-1.9-6.9-2.7L120,135c-8.9-2.7-15.3-6.9-19-12.4
				c-3.6-5.4-5.5-12.7-5.5-21.8c0-6.7,0.8-12.3,2.4-16.5c1.7-4.4,4.2-7.9,7.7-10.2c3.4-2.3,7.7-3.9,13-4.7
				c5.1-0.8,11.3-1.3,18.4-1.3c5.7,0.1,11.7,0.4,18,1c6.3,0.6,12.6,1.6,18.6,3.2l1.2,0.3l-1.6,16.8l-1.4,0
				c-4.8-0.1-10.3-0.2-16.5-0.4c-6.2-0.2-12.3-0.2-18-0.2c-3.5,0-6.5,0.1-8.9,0.3c-2.3,0.2-4.1,0.7-5.4,1.5
				c-1.3,0.7-2.2,1.8-2.8,3.3c-0.6,1.6-1,4-1,7c0,4.6,0.9,7.8,2.6,9.6c1.8,1.9,5,3.4,9.4,4.6l22.6,6.7c9.4,2.9,16,7.1,19.6,12.7
				c3.6,5.5,5.4,12.8,5.4,21.8c0,6.7-0.8,12.3-2.4,16.6c-1.6,4.5-4.2,8-7.7,10.5c-3.4,2.4-7.8,4.2-13.2,5.2
				C150.3,189.5,143.9,190,136.6,190z"/>
			<path class="st6" d="M137.1,69.6c5.6,0.1,11.6,0.4,17.8,1c6.3,0.6,12.4,1.6,18.3,3.2l-1.3,14.1c-4.8-0.1-10.3-0.2-16.5-0.4
				c-6.3-0.2-12.3-0.2-18-0.2c-3.5,0-6.6,0.1-9,0.3c-2.5,0.2-4.5,0.8-6.1,1.7c-1.6,0.9-2.7,2.2-3.4,4.1c-0.7,1.8-1.1,4.3-1.1,7.6
				c0,5,1,8.5,3.1,10.6c2,2.1,5.4,3.8,10,5l22.6,6.6c9.1,2.8,15.3,6.8,18.8,12c3.4,5.3,5.1,12.3,5.1,21c0,6.5-0.8,11.9-2.3,16.1
				c-1.6,4.2-3.9,7.5-7.1,9.8c-3.2,2.3-7.4,4-12.6,5c-5.2,1-11.5,1.5-18.8,1.5c-3.8,0-8.9-0.2-15.5-0.7c-6.6-0.4-14.1-1.5-22.5-3.3
				l1.3-14.9c6.5,0.2,12,0.4,16.4,0.6c4.4,0.2,8.2,0.2,11.5,0.2c3.2,0,6.2,0,9,0c5.1,0,9.1-0.3,12-1c2.9-0.7,4.9-2,6.1-4.2
				c1.2-2.1,1.7-5.1,1.7-9.1c0-3.4-0.4-6.1-1.2-8.1c-0.8-1.9-2.2-3.5-4.1-4.6c-1.9-1.1-4.3-2-7.3-2.8l-23.4-7.1
				c-8.6-2.7-14.7-6.6-18.2-11.8c-3.5-5.2-5.2-12.2-5.2-20.9c0-6.5,0.8-11.9,2.3-16c1.5-4.2,3.9-7.3,7.1-9.5
				c3.2-2.2,7.3-3.7,12.4-4.5C123.9,70,130,69.6,137.1,69.6 M137.1,66.6L137.1,66.6c-7.2,0-13.5,0.4-18.7,1.3
				c-5.4,0.9-10,2.6-13.6,5c-3.7,2.5-6.5,6.2-8.3,10.9C94.9,88.2,94,94,94,100.8c0,9.3,1.9,16.9,5.7,22.6c3.9,5.8,10.5,10.1,19.8,13
				l23.4,7.1l0.1,0l0.1,0c2.7,0.7,4.9,1.5,6.5,2.5c1.3,0.8,2.3,1.8,2.8,3.2c0.7,1.6,1,3.9,1,6.9c0,4.3-0.7,6.5-1.4,7.7
				c-0.7,1.3-2.1,2.2-4.1,2.7c-2.6,0.6-6.4,0.9-11.3,0.9h-9c-3.2,0-7-0.1-11.3-0.2c-4.4-0.2-9.9-0.4-16.4-0.6l-2.8-0.1l-0.3,2.8
				l-1.3,14.9l-0.2,2.7l2.6,0.5c8.5,1.8,16.2,2.9,22.9,3.4c6.7,0.5,11.9,0.7,15.7,0.7c7.5,0,14-0.5,19.3-1.5
				c5.6-1.1,10.3-2.9,13.8-5.5c3.7-2.7,6.4-6.4,8.2-11.2c1.7-4.5,2.5-10.3,2.5-17.1c0-9.3-1.9-16.9-5.6-22.6
				c-3.8-5.8-10.7-10.3-20.4-13.3l-22.6-6.6l0,0l0,0c-4.1-1.1-7-2.5-8.7-4.2c-1.5-1.5-2.2-4.4-2.2-8.5c0-2.8,0.3-5,0.9-6.5
				c0.5-1.2,1.2-2,2.1-2.6c1.2-0.7,2.8-1.1,4.8-1.3c2.4-0.2,5.4-0.3,8.8-0.3c5.7,0,11.7,0.1,17.9,0.2c6.3,0.2,11.8,0.3,16.5,0.4
				l2.8,0.1l0.3-2.8l1.3-14.1l0.2-2.5l-2.5-0.6c-6.1-1.6-12.4-2.7-18.8-3.2C148.9,67.1,142.8,66.7,137.1,66.6L137.1,66.6L137.1,66.6
				z"/>
		</g>
		<g>
			<path class="st5" d="M219.9,188.1c-7.4,0-13.5-2.1-18-6.3c-4.6-4.2-6.9-9.9-7-16.9V93.2c0.1-7.1,2.5-12.7,7-17
				c4.5-4.2,10.6-6.3,18-6.3h17.7c6,0,12,0.1,17.9,0.3c5.9,0.2,11.5,0.6,16.7,1l1.5,0.1l-1.2,18.3h-46.2c-2.7,0-4.6,0.6-5.8,1.9
				c-1.2,1.3-1.8,3.4-1.8,6.3v19.4h47.6v18.3h-47.6v24.7c0,2.9,0.6,5,1.8,6.3c1.2,1.2,3.1,1.9,5.8,1.9h46.2l1.2,18.3l-1.5,0.1
				c-5.3,0.5-10.9,0.8-16.7,0.9c-5.7,0.2-11.6,0.3-17.9,0.3C231.1,188.1,225.3,188.1,219.9,188.1z"/>
			<path class="st6" d="M237.6,71.4c6,0,12,0.1,17.8,0.3c5.9,0.2,11.4,0.5,16.6,1l-1,15.4h-44.8c-3.1,0-5.4,0.8-6.9,2.3
				c-1.5,1.5-2.2,4-2.2,7.3v20.9h47.7V134h-47.7v26.2c0,3.3,0.8,5.8,2.2,7.3c1.5,1.5,3.8,2.3,6.9,2.3H271l1,15.4
				c-5.2,0.4-10.7,0.8-16.6,0.9c-5.9,0.2-11.8,0.3-17.8,0.3c-6,0.1-11.9,0.1-17.7,0.1c-7.1,0-12.8-2-17-5.9
				c-4.3-3.9-6.5-9.2-6.6-15.9V93.2c0.1-6.6,2.3-11.9,6.6-15.9s9.9-5.9,17-5.9H237.6 M237.6,68.4h-17.7c-7.8,0-14.2,2.2-19,6.7
				c-4.9,4.5-7.4,10.6-7.5,18l0,71.8c0.1,7.5,2.7,13.6,7.5,18.1c4.8,4.4,11.2,6.7,19,6.7c5.4,0,11.2,0,17.7-0.1
				c6.2-0.1,12.2-0.2,17.9-0.3c5.8-0.2,11.4-0.5,16.8-0.9l2.9-0.2l-0.2-2.9l-1-15.4l-0.2-2.8H271h-44.8c-2.2,0-3.8-0.5-4.7-1.4
				c-0.9-0.9-1.4-2.8-1.4-5.2V137h44.7h3v-3v-15.3v-3h-3h-44.7V97.8c0-2.5,0.5-4.3,1.4-5.2c0.9-0.9,2.5-1.4,4.7-1.4H271h2.8l0.2-2.8
				l1-15.4l0.2-2.9l-2.9-0.2c-5.2-0.4-10.9-0.8-16.7-1C249.7,68.6,243.6,68.4,237.6,68.4L237.6,68.4z"/>
		</g>
		<g>
			<path class="st5" d="M362.2,187.8l-9.7-32.7H312l-9.6,32.7h-24.4l35.3-111c0.5-1.9,1.6-3.6,3.3-4.8c1.6-1.2,3.5-1.8,5.6-1.8h20.2
				c2.1,0,4,0.6,5.5,1.8c1.6,1.2,2.7,2.8,3.3,4.7l35.3,111H362.2z M346.8,135.8l-11.1-37.4c-0.5-1.8-0.9-3.6-1.3-5.4
				c-0.3-1.4-0.7-2.7-0.9-4h-2.2c-0.3,1.3-0.6,2.6-0.9,4c-0.5,2-1,3.8-1.5,5.4l-11,37.4H346.8z"/>
			<path class="st6" d="M342.4,71.8c1.8,0,3.3,0.5,4.6,1.5c1.3,1,2.3,2.3,2.8,4l34.7,109.1h-21.2l-9.7-32.7h-42.7l-9.7,32.7H280
				l34.7-109.1c0.4-1.7,1.4-3,2.7-4c1.4-1,3-1.5,4.7-1.5H342.4 M315.7,137.3h33.1L337.1,98c-0.5-1.8-0.9-3.5-1.3-5.3
				c-0.4-1.8-0.8-3.5-1.2-5.2H330c-0.3,1.7-0.7,3.4-1.2,5.2c-0.4,1.8-0.9,3.5-1.5,5.3L315.7,137.3 M342.4,68.8h-20.2
				c-2.4,0-4.6,0.7-6.5,2.1c-1.9,1.4-3.2,3.3-3.9,5.6l-34.7,109l-1.2,3.9h4.1h21.2h2.2l0.6-2.2l9-30.6h38.2l9.1,30.6l0.6,2.1h2.2
				h21.2h4.1l-1.2-3.9L352.7,76.3c-0.8-2.3-2.1-4.1-3.9-5.5C347,69.5,344.8,68.8,342.4,68.8L342.4,68.8z M330.2,98.9
				c0.5-1.7,1-3.5,1.5-5.4c0.2-0.8,0.4-1.6,0.6-2.4c0.2,0.8,0.4,1.6,0.6,2.4c0.4,1.8,0.9,3.6,1.3,5.3l0,0.1l0,0.1l10.5,35.5h-25.1
				L330.2,98.9L330.2,98.9z"/>
		</g>
		<g>
			<path class="st5" d="M441.4,189.3c-8.2,0-16-0.1-23.1-0.4c-7-0.3-13.8-0.6-20.1-1.1l-1.4-0.1V70.4l1.4-0.1c6.3-0.4,13-0.8,20-1.1
				c7-0.3,14.8-0.4,23.2-0.4c8.8,0,16.3,1,22.5,3c6.3,2,11.4,5.4,15.3,10.1c3.8,4.7,6.7,11,8.4,18.7c1.7,7.7,2.5,17.2,2.5,28.5
				c0,11.2-0.8,20.8-2.5,28.5c-1.7,7.8-4.5,14.1-8.4,18.7c-3.9,4.7-9,8.1-15.3,10.1C457.6,188.3,450.1,189.3,441.4,189.3z
				 M422.1,169.5c5.6,0.2,12.1,0.2,19.2,0.2c6.1,0,10.9-1.2,14.4-3.5c3.4-2.3,5.8-6.3,7.3-12.1c1.5-6,2.3-14.4,2.3-25.1
				c0-10.7-0.8-19.1-2.3-25.1c-1.5-5.7-3.9-9.8-7.3-12.2c-3.4-2.4-8.3-3.6-14.3-3.6c-6.6,0-12.8,0.1-18.3,0.2c-0.9,0-1.7,0-2.6,0v81
				L422.1,169.5z"/>
			<path class="st6" d="M441.4,70.3c8.6,0,16,1,22,2.9c6,1.9,10.9,5.1,14.6,9.6c3.7,4.5,6.4,10.5,8,18.1c1.7,7.6,2.5,17,2.5,28.1
				c0,11.2-0.8,20.6-2.5,28.1c-1.7,7.6-4.3,13.6-8,18.1c-3.7,4.5-8.6,7.7-14.6,9.6c-6,1.9-13.4,2.9-22,2.9c-8.3,0-16-0.1-23.1-0.4
				c-7.1-0.3-13.8-0.6-20.1-1.1V71.8c6.3-0.4,13-0.8,20-1.1C425.2,70.4,432.9,70.3,441.4,70.3 M441.4,171.2c6.4,0,11.5-1.2,15.2-3.7
				c3.7-2.5,6.3-6.8,7.9-12.9c1.6-6.2,2.3-14.6,2.3-25.5c0-10.8-0.8-19.3-2.3-25.5c-1.5-6.1-4.2-10.5-7.9-13
				c-3.7-2.5-8.8-3.8-15.2-3.8c-6.9,0-13,0.1-18.3,0.2c-1.4,0-2.7,0.1-4.1,0.1v83.9c1,0,2.1,0.1,3.2,0.1
				C427.9,171.1,434.3,171.2,441.4,171.2 M441.4,67.3c-8.4,0-16.2,0.1-23.3,0.4c-7,0.3-13.8,0.6-20.1,1.1l-2.8,0.2v2.8v114.5v2.8
				l2.8,0.2c6.3,0.4,13.1,0.8,20.2,1.1c7.2,0.3,15,0.4,23.2,0.4c8.9,0,16.6-1,22.9-3c6.6-2.1,11.9-5.7,16-10.6
				c4-4.9,6.9-11.4,8.7-19.4c1.7-7.8,2.6-17.4,2.6-28.8c0-11.3-0.9-21-2.6-28.8c-1.8-8-4.7-14.5-8.7-19.4c-4.1-4.9-9.4-8.5-16-10.6
				C458,68.3,450.3,67.3,441.4,67.3L441.4,67.3z M421.9,89.9c0.4,0,0.8,0,1.1,0c5.5-0.1,11.6-0.2,18.3-0.2c5.8,0,10.3,1.1,13.5,3.3
				c3.1,2.1,5.3,5.9,6.7,11.3c1.5,5.9,2.2,14.2,2.2,24.7c0,10.6-0.7,18.9-2.2,24.8c-1.4,5.4-3.6,9.1-6.7,11.2
				c-3.2,2.1-7.7,3.2-13.5,3.2c-7.1,0-13.6-0.1-19.2-0.2l-0.2,0V89.9L421.9,89.9z"/>
		</g>
	</g>
</g>
<g>
	<g>
		<path class="st5" d="M97.8,246.4c-0.7,0-1.6,0-2.8-0.1c-1.2-0.1-2.6-0.3-4.2-0.7l-0.9-0.2l0.4-4.8l0.9,0c1.1,0,2.1,0,2.9,0.1
			c0.8,0,1.5,0,2.1,0.1c0.6,0,1.1,0,1.5,0c0.7,0,1.2,0,1.5-0.1c0.2,0,0.2-0.1,0.2-0.1c0,0,0.1-0.2,0.1-0.7c0-0.4-0.1-0.6-0.1-0.7
			c0-0.1-0.1-0.1-0.2-0.2c-0.1-0.1-0.4-0.2-0.9-0.3l-4-1.4c-1.7-0.6-2.9-1.5-3.6-2.5c-0.7-1-1.1-2.4-1.1-4c0-1.3,0.2-2.3,0.5-3.1
			c0.3-0.9,0.9-1.6,1.6-2.1c0.7-0.5,1.6-0.8,2.6-1c1-0.2,2.1-0.2,3.4-0.2c1,0,2.1,0.1,3.2,0.2c1.2,0.1,2.3,0.3,3.5,0.7l0.8,0.2
			l-0.5,4.6c0,0-2.7-0.1-3.8-0.1c-1.1,0-2.2,0-3.2,0c-0.5,0-0.9,0-1.3,0c-0.3,0-0.4,0.1-0.5,0.1c0,0.1-0.1,0.2-0.1,0.7
			c0,0.4,0.1,0.6,0.2,0.7c0.1,0.1,0.4,0.3,1.2,0.6l3.7,1.2c1.8,0.6,3,1.4,3.7,2.5c0.7,1.1,1.1,2.4,1.1,4.1c0,1.2-0.2,2.2-0.5,3.1
			c-0.3,0.9-0.9,1.6-1.6,2.2c-0.7,0.5-1.6,0.9-2.6,1.1C100.3,246.3,99.1,246.4,97.8,246.4z"/>
		<path class="st6" d="M97.9,225.4c1,0,2,0.1,3.1,0.2c1.1,0.1,2.2,0.3,3.3,0.6L104,229c-0.8,0-1.8,0-2.9-0.1c-1.1,0-2.2,0-3.2,0
			c-0.5,0-1,0-1.3,0c-0.4,0-0.7,0.1-0.9,0.2c-0.2,0.1-0.4,0.3-0.5,0.5c-0.1,0.2-0.1,0.6-0.1,1c0,0.7,0.2,1.1,0.5,1.4
			c0.3,0.3,0.8,0.6,1.6,0.8l3.7,1.2c1.5,0.5,2.6,1.2,3.2,2.1c0.6,0.9,0.9,2.1,0.9,3.5c0,1.1-0.1,2-0.4,2.7c-0.3,0.7-0.7,1.3-1.2,1.7
			c-0.6,0.4-1.3,0.7-2.2,0.9c-0.9,0.2-2,0.3-3.4,0.3c-0.6,0-1.5,0-2.7-0.1c-1.2-0.1-2.5-0.3-4-0.6l0.3-3c1.1,0,2.1,0,2.9,0.1
			c0.8,0,1.5,0,2.1,0.1c0.6,0,1.1,0,1.5,0c0.7,0,1.3,0,1.8-0.1c0.4-0.1,0.7-0.3,0.9-0.6c0.2-0.3,0.3-0.7,0.3-1.2
			c0-0.4-0.1-0.8-0.2-1.1c-0.1-0.3-0.3-0.5-0.6-0.6c-0.3-0.2-0.6-0.3-1.1-0.4l-3.9-1.3c-1.5-0.5-2.5-1.3-3.1-2.1
			c-0.6-0.9-0.9-2-0.9-3.5c0-1.1,0.1-2,0.4-2.7c0.3-0.7,0.7-1.2,1.3-1.6c0.6-0.4,1.3-0.7,2.2-0.8C95.6,225.5,96.7,225.4,97.9,225.4
			 M97.9,223.4c-1.4,0-2.6,0.1-3.6,0.3c-1.2,0.2-2.2,0.6-3,1.1c-0.9,0.6-1.6,1.5-2,2.6c-0.4,0.9-0.5,2.1-0.5,3.5
			c0,1.8,0.4,3.4,1.3,4.6c0.9,1.2,2.2,2.2,4.1,2.9l4,1.4l0.1,0l0.1,0c0.1,0,0.3,0.1,0.3,0.1c-0.2,0-0.5,0-0.8,0c-0.4,0-0.9,0-1.5,0
			c-0.6,0-1.3,0-2.1-0.1c-0.8,0-1.8-0.1-2.9-0.1l-1.9,0l-0.2,1.8l-0.3,3l-0.2,1.8l1.7,0.4c1.6,0.4,3.1,0.6,4.3,0.7
			c1.2,0.1,2.2,0.1,2.9,0.1c1.5,0,2.7-0.1,3.7-0.3c1.2-0.2,2.2-0.6,3-1.2c0.9-0.6,1.5-1.5,1.9-2.6c0.3-1,0.5-2.1,0.5-3.4
			c0-1.9-0.4-3.4-1.2-4.6c-0.8-1.3-2.3-2.2-4.2-2.9l-3.7-1.2c-0.2-0.1-0.3-0.1-0.4-0.2c0.2,0,0.4,0,0.6,0c1.1,0,2.1,0,3.2,0
			c1.1,0,2.1,0,2.9,0.1l1.9,0l0.2-1.8l0.3-2.8l0.2-1.6l-1.6-0.5c-1.2-0.4-2.4-0.6-3.7-0.7C100,223.4,98.9,223.4,97.9,223.4
			L97.9,223.4z"/>
	</g>
	<g>
		<path class="st5" d="M113,246.4c-1.5,0-2.7-0.4-3.6-1.3c-0.9-0.9-1.4-2.1-1.4-3.6l0-6.6h-2.4v-4.5l2.4-0.1l0-3.9h6.2v3.8h3.9v4.7
			h-3.9v5.7c0,0.2,0,0.3,0,0.4c0,0,0,0,0,0c0,0,0.2,0,0.5,0h2.6l0.7,4.5l-0.8,0.3c-0.4,0.2-0.9,0.3-1.4,0.3c-0.5,0.1-1,0.2-1.6,0.2
			C113.9,246.4,113.4,246.4,113,246.4z"/>
		<path class="st6" d="M113.2,227.4v3.8h3.9v2.7h-3.9v6.7c0,0.5,0.1,0.9,0.3,1.1c0.2,0.2,0.6,0.3,1.2,0.3h1.8l0.5,2.8
			c-0.3,0.1-0.8,0.2-1.2,0.3c-0.5,0.1-1,0.2-1.5,0.2c-0.5,0.1-0.9,0.1-1.2,0.1c-1.2,0-2.2-0.3-2.9-1c-0.7-0.7-1-1.6-1-2.8l0-7.6
			h-2.4v-2.6l2.4-0.1l0-3.9H113.2 M115.2,225.4h-2H109h-2l0,2l0,2l-0.5,0l-1.9,0.1v1.9v2.6v2h2h0.4l0,5.6c0,1.8,0.6,3.2,1.7,4.3
			c1.1,1,2.5,1.6,4.3,1.6c0.4,0,0.9,0,1.4-0.1c0.6,0,1.1-0.1,1.6-0.2c0.5-0.1,1.1-0.2,1.6-0.4l1.6-0.6l-0.3-1.6l-0.5-2.8l-0.3-1.7
			h-1.7h-1.3V236h1.9h2v-2v-2.7v-2h-2h-1.9v-1.8V225.4L115.2,225.4z"/>
	</g>
	<g>
		<path class="st5" d="M118.4,246.1v-15.8h5.1l0.2,1.3c0.5-0.4,1.1-0.7,1.6-0.9c1.1-0.5,2.2-0.8,3.3-0.8h1.8l-0.6,5.8h-2
			c-0.6,0-1.2,0.1-1.8,0.2c-0.5,0.1-1,0.3-1.5,0.5v9.7H118.4z"/>
		<path class="st6" d="M129.4,230.9l-0.4,3.8h-1.1c-0.7,0-1.3,0.1-2.1,0.3c-0.6,0.2-1.4,0.4-2.3,0.7v9.4h-4.1v-13.8h3.2l0.4,2.1
			c0.9-0.8,1.8-1.4,2.8-1.8c1-0.4,2-0.7,2.9-0.7H129.4 M131.7,228.9h-2.2h-0.7c-1.2,0-2.4,0.3-3.7,0.8c-0.2,0.1-0.3,0.2-0.5,0.2
			l-0.1-0.7h-1.7h-3.2h-2v2v13.8v2h2h4.1h2v-2v-7.9c0.3-0.1,0.5-0.2,0.8-0.2c0.6-0.1,1.1-0.2,1.6-0.2h1.1h1.8l0.2-1.8l0.4-3.8
			L131.7,228.9L131.7,228.9z"/>
	</g>
	<g>
		<path class="st5" d="M135.3,246.4c-1,0-1.9-0.2-2.7-0.5c-0.9-0.4-1.5-0.9-2-1.7c-0.5-0.7-0.8-1.6-0.8-2.7v-1.4
			c0-1.4,0.5-2.5,1.5-3.4c0.9-0.8,2.2-1.1,3.7-1.1h4c0-0.2-0.1-0.3-0.1-0.4c0,0,0,0,0,0c0,0-0.2-0.2-1.1-0.2c-0.7,0-1.6,0-2.6,0.1
			c-1.1,0-2.1,0.1-3.3,0.2l-0.9,0.1l-0.7-4.6l0.9-0.2c0.7-0.1,1.5-0.2,2.4-0.3c0.9-0.1,1.8-0.2,2.7-0.2c1-0.1,1.8-0.1,2.4-0.1
			c1.2,0,2.4,0.2,3.3,0.5c1,0.4,1.8,1.1,2.4,2c0.5,0.9,0.8,2.1,0.8,3.5v10.1h-5.1l-0.2-1.2c-0.5,0.4-1.2,0.8-1.9,1.1
			C137.1,246.2,136.2,246.4,135.3,246.4z M136.3,239.9c-0.3,0-0.4,0-0.4,0c0,0,0,0.1,0,0.3v0.7c0,0.2,0,0.3,0.1,0.4
			c0,0,0.2,0.1,0.6,0.1c0.4,0,0.8-0.1,1.2-0.2c0.4-0.1,0.8-0.3,1.2-0.6v-0.6L136.3,239.9z"/>
		<path class="st6" d="M138.8,230.9c1.2,0,2.1,0.2,2.9,0.5c0.8,0.3,1.4,0.8,1.8,1.6c0.4,0.7,0.6,1.8,0.6,3v9.1h-3.3l-0.4-2.2
			c-0.3,0.4-0.7,0.7-1.1,1.1c-0.5,0.4-1.1,0.7-1.8,1c-0.7,0.3-1.4,0.4-2.3,0.4c-0.8,0-1.6-0.1-2.3-0.4c-0.7-0.3-1.2-0.7-1.6-1.3
			c-0.4-0.6-0.6-1.3-0.6-2.2v-1.4c0-1.1,0.4-2,1.1-2.6c0.7-0.6,1.8-0.9,3.1-0.9h5v-0.7c0-0.6-0.2-1.1-0.5-1.4
			c-0.3-0.3-0.9-0.4-1.8-0.4c-0.7,0-1.6,0-2.7,0.1c-1.1,0-2.2,0.1-3.3,0.2l-0.4-2.8c0.7-0.1,1.5-0.2,2.3-0.3
			c0.9-0.1,1.8-0.2,2.6-0.2C137.3,230.9,138.1,230.9,138.8,230.9 M136.5,242.4c0.5,0,1-0.1,1.6-0.3c0.6-0.2,1.1-0.5,1.7-0.9
			c0.1-0.1,0.1-0.1,0.2-0.1v-2.2l-3.7,0c-0.5,0-0.9,0.1-1.1,0.4c-0.2,0.2-0.3,0.6-0.3,1v0.7c0,0.5,0.1,0.8,0.4,1.1
			S136,242.4,136.5,242.4 M138.8,228.9c-0.7,0-1.5,0-2.5,0.1c-0.9,0.1-1.8,0.2-2.7,0.2c-0.9,0.1-1.8,0.2-2.5,0.4l-1.9,0.4l0.3,1.9
			l0.4,2.8l0.3,1.8c-0.9,1-1.3,2.2-1.3,3.6v1.4c0,1.3,0.3,2.4,0.9,3.3c0.6,0.9,1.4,1.6,2.4,2c0.9,0.4,2,0.6,3.1,0.6
			c1.1,0,2.1-0.2,3.1-0.6c0.3-0.1,0.5-0.2,0.8-0.4l0.1,0.6h1.6h3.3h2v-2v-9.1c0-1.7-0.3-3-0.9-4c-0.7-1.1-1.6-2-2.8-2.4
			C141.4,229.1,140.1,228.9,138.8,228.9L138.8,228.9z"/>
	</g>
	<g>
		<path class="st5" d="M152.8,246.4c-1.5,0-2.7-0.4-3.6-1.3c-0.9-0.9-1.4-2.1-1.4-3.6l0-6.6h-2.4v-4.5l2.4-0.1l0-3.9h6.2v3.8h3.9
			v4.7H154v5.7c0,0.2,0,0.3,0,0.4c0,0,0,0,0,0c0,0,0.2,0,0.5,0h2.7l0.7,4.5l-0.8,0.3c-0.4,0.2-0.9,0.3-1.4,0.3
			c-0.5,0.1-1,0.2-1.5,0.2C153.7,246.4,153.2,246.4,152.8,246.4z"/>
		<path class="st6" d="M153,227.4v3.8h3.9v2.7H153v6.7c0,0.5,0.1,0.9,0.3,1.1c0.2,0.2,0.6,0.3,1.2,0.3h1.8l0.4,2.8
			c-0.3,0.1-0.7,0.2-1.2,0.3c-0.5,0.1-1,0.2-1.4,0.2c-0.5,0.1-0.9,0.1-1.2,0.1c-1.2,0-2.2-0.3-2.9-1c-0.7-0.7-1-1.6-1-2.8l0-7.6
			h-2.4v-2.6l2.4-0.1l0-3.9H153 M155,225.4h-2h-4.2h-2l0,2l0,1.9l-0.5,0l-1.9,0.1v1.9v2.6v2h2h0.4l0,5.6c0,1.8,0.6,3.2,1.7,4.3
			c1.1,1,2.5,1.6,4.3,1.6c0.4,0,0.9,0,1.4-0.1c0.4,0,1-0.1,1.6-0.2c0.5-0.1,1.1-0.2,1.6-0.4l1.5-0.6l-0.3-1.6l-0.4-2.8L158,240h-1.7
			H155V236h1.9h2v-2v-2.7v-2h-2H155v-1.8V225.4L155,225.4z"/>
	</g>
	<g>
		<path class="st5" d="M165.9,246.4c-1.9,0-3.5-0.3-4.7-0.9c-1.3-0.6-2.2-1.6-2.8-2.8c-0.5-1.2-0.8-2.7-0.8-4.5
			c0-1.9,0.3-3.5,0.8-4.7c0.6-1.3,1.5-2.2,2.8-2.8c1.2-0.5,2.7-0.8,4.5-0.8c2.6,0,4.4,0.5,5.6,1.4c1.3,1,1.9,2.5,1.9,4.3
			c0,1.5-0.4,2.7-1.3,3.6c-0.9,0.8-2.2,1.2-4.1,1.2h-3.7c0.1,0.3,0.3,0.4,0.4,0.5c0.3,0.1,0.7,0.3,1.6,0.3c0.6,0,1.4,0,2.3-0.1
			c0.9,0,1.9-0.1,2.8-0.2l1-0.1l0.6,4.2l-0.7,0.3c-0.6,0.3-1.3,0.5-2.1,0.7c-0.7,0.2-1.5,0.3-2.2,0.3
			C167.4,246.4,166.6,246.4,165.9,246.4z M166.9,236.1c0.2,0,0.4,0,0.4,0c0-0.1,0.1-0.2,0.1-0.5c0-0.3-0.1-0.5-0.1-0.5
			c0,0-0.3-0.2-1.3-0.2c-0.8,0-1.2,0.1-1.4,0.2c-0.1,0-0.2,0.1-0.4,0.6c0,0.1-0.1,0.3-0.1,0.5H166.9z"/>
		<path class="st6" d="M165.8,230.9c2.3,0,4,0.4,5,1.2c1,0.8,1.5,2,1.5,3.5c0,1.3-0.3,2.2-1,2.9c-0.7,0.6-1.8,0.9-3.4,0.9h-4.9
			c0,0.4,0.1,0.8,0.2,1.1c0.2,0.6,0.5,1.1,1,1.3c0.5,0.2,1.2,0.4,2,0.4c0.6,0,1.4,0,2.4-0.1s1.9-0.1,2.8-0.2l0.4,2.5
			c-0.5,0.3-1.2,0.5-1.8,0.6c-0.7,0.2-1.4,0.3-2.1,0.3c-0.7,0.1-1.4,0.1-2.1,0.1c-1.8,0-3.2-0.2-4.2-0.8c-1.1-0.5-1.8-1.3-2.3-2.4
			c-0.5-1.1-0.7-2.4-0.7-4.1c0-1.8,0.2-3.2,0.7-4.3c0.5-1.1,1.3-1.8,2.3-2.3C162.7,231.1,164.1,230.9,165.8,230.9 M163,237.1h3.8
			c0.6,0,1-0.1,1.2-0.4c0.2-0.3,0.3-0.6,0.3-1.1c0-0.6-0.2-1.1-0.6-1.4c-0.4-0.2-1-0.4-1.8-0.4c-0.8,0-1.4,0.1-1.8,0.3
			c-0.4,0.2-0.7,0.6-0.9,1.2C163.1,235.7,163,236.3,163,237.1 M165.8,228.9c-2,0-3.6,0.3-4.9,0.9c-1.5,0.7-2.6,1.8-3.3,3.3
			c-0.6,1.3-0.9,3-0.9,5.1c0,1.9,0.3,3.6,0.9,4.9c0.7,1.5,1.8,2.6,3.3,3.4c1.3,0.6,3,1,5.1,1c0.7,0,1.5,0,2.3-0.1
			c0.8-0.1,1.6-0.2,2.4-0.4c0.8-0.2,1.6-0.4,2.3-0.8l1.3-0.6l-0.2-1.5l-0.4-2.5l-0.3-1.9l-0.3,0c0.9-1,1.4-2.4,1.3-4.1
			c0-2.7-1.2-4.3-2.3-5.1C170.7,229.4,168.6,228.9,165.8,228.9L165.8,228.9z"/>
	</g>
	<g>
		<path class="st5" d="M181.5,251.4c-1.5,0-2.8-0.1-3.7-0.2c-1.1-0.2-1.9-0.4-2.6-0.8c-0.8-0.4-1.3-1-1.6-1.7
			c-0.3-0.6-0.4-1.4-0.4-2.3c0-0.7,0.1-1.4,0.4-1.9c0.3-0.5,0.7-1,1.3-1.5c-0.1-0.1-0.1-0.2-0.1-0.3c-0.2-0.6-0.3-1.2-0.2-1.9
			c0.1-0.6,0.3-1.1,0.6-1.6c-0.3-0.2-0.5-0.5-0.7-0.8c-0.5-0.8-0.8-1.9-0.8-3.1s0.3-2.3,0.8-3.1c0.6-0.8,1.4-1.5,2.6-1.8
			c1.1-0.3,2.4-0.5,4.2-0.5c1.5,0,2.7,0.1,3.7,0.4h5.5l-0.5,3.7l-1.4,0.2c0.1,0.4,0.1,0.8,0.1,1.2c0,1.2-0.3,2.2-0.8,3
			c-0.6,0.9-1.4,1.5-2.6,1.8c-0.7,0.2-1.7,0.4-2.8,0.5l2.2,0.3c1.7,0.2,2.9,0.7,3.7,1.5c0.8,0.8,1.1,2,1.1,3.6
			c0,1.4-0.3,2.5-0.9,3.4c-0.6,0.8-1.6,1.4-2.9,1.7C184.8,251.3,183.3,251.4,181.5,251.4z M179.2,246.2c0,0,0.1,0.1,0.4,0.1
			c0.4,0.1,1.1,0.1,1.9,0.1c0.9,0,1.5,0,1.9-0.1c0.4-0.1,0.5-0.1,0.5-0.1c0,0,0-0.1,0-0.3c0-0.1,0-0.1,0-0.1c0,0-0.1,0-0.1,0
			c-0.2-0.1-0.6-0.1-1.2-0.2l-3.1-0.3c-0.2,0.1-0.2,0.2-0.2,0.3c0,0-0.1,0.1-0.1,0.4C179.1,246.1,179.2,246.2,179.2,246.2z
			 M181.3,234.4c-1.2,0-1.5,0.2-1.6,0.2c-0.1,0.1-0.2,0.3-0.2,0.6c0,0.2,0,0.5,0.2,0.6c0,0,0.4,0.2,1.5,0.2c1.2,0,1.5-0.2,1.5-0.2
			c0.1-0.1,0.2-0.3,0.2-0.6c0-0.4-0.1-0.6-0.1-0.6C182.8,234.6,182.5,234.4,181.3,234.4z"/>
		<path class="st6" d="M181.4,230.9c1.5,0,2.7,0.1,3.6,0.4h4.5l-0.2,1.8l-1.7,0.2c0.2,0.6,0.4,1.2,0.4,2c0,1-0.2,1.9-0.6,2.5
			c-0.4,0.7-1.1,1.1-2.1,1.4c-1,0.3-2.2,0.4-3.9,0.4c-0.9,0-1.8,0-2.5-0.1c-0.1,0.1-0.2,0.2-0.2,0.4c-0.1,0.3-0.1,0.6,0.1,0.9
			c0.1,0.3,0.5,0.4,1,0.5l5.1,0.6c1.5,0.2,2.5,0.5,3.1,1.2c0.6,0.7,0.9,1.6,0.9,2.9c0,1.2-0.2,2.1-0.7,2.8c-0.5,0.7-1.3,1.1-2.3,1.3
			s-2.5,0.4-4.2,0.4c-1.5,0-2.7-0.1-3.6-0.2c-1-0.1-1.7-0.4-2.2-0.7c-0.5-0.3-0.9-0.7-1.2-1.2c-0.2-0.5-0.3-1.1-0.3-1.9
			c0-0.6,0.1-1.1,0.3-1.5c0.2-0.4,0.5-0.8,1-1.1c0.2-0.2,0.5-0.3,0.8-0.5c-0.3-0.3-0.5-0.6-0.7-1c-0.2-0.5-0.2-0.9-0.1-1.4
			c0.1-0.5,0.2-0.9,0.5-1.3c0.2-0.3,0.5-0.5,0.7-0.7c-0.6-0.3-1.1-0.7-1.4-1.2c-0.4-0.6-0.6-1.5-0.6-2.5c0-1,0.2-1.9,0.6-2.5
			c0.4-0.6,1.1-1.1,2.1-1.4C178.5,231,179.8,230.9,181.4,230.9 M181.3,237.1c1,0,1.7-0.1,2.1-0.4c0.4-0.3,0.6-0.8,0.6-1.5
			s-0.2-1.2-0.6-1.4c-0.4-0.3-1.1-0.4-2.1-0.4c-1,0-1.7,0.1-2.1,0.4c-0.4,0.3-0.6,0.8-0.6,1.4s0.2,1.2,0.6,1.5
			C179.6,237,180.3,237.1,181.3,237.1 M181.5,247.4c0.9,0,1.6,0,2.1-0.1c0.5-0.1,0.8-0.2,1-0.5c0.2-0.2,0.3-0.5,0.3-0.9
			c0-0.4-0.1-0.6-0.2-0.8c-0.1-0.2-0.4-0.3-0.7-0.4c-0.3-0.1-0.8-0.2-1.3-0.2l-3.5-0.4c-0.1,0-0.1,0.1-0.2,0.2
			c-0.3,0.2-0.5,0.5-0.6,0.7c-0.1,0.2-0.2,0.5-0.2,0.9c0,0.4,0.1,0.8,0.3,1c0.2,0.2,0.5,0.4,1,0.5
			C179.9,247.4,180.6,247.4,181.5,247.4 M181.4,228.9c-1.8,0-3.3,0.2-4.5,0.5c-1.4,0.4-2.5,1.2-3.2,2.2c-0.6,1-1,2.2-1,3.6
			c0,1.4,0.3,2.6,1,3.6c0.1,0.1,0.2,0.2,0.3,0.4c-0.2,0.4-0.3,0.9-0.4,1.3c-0.1,0.7-0.1,1.4,0.1,2c-0.5,0.4-0.8,0.9-1,1.4
			c-0.3,0.7-0.5,1.5-0.5,2.4c0,1.1,0.2,1.9,0.5,2.7c0.4,0.9,1,1.6,2,2.2c0.8,0.5,1.7,0.8,3,0.9c1,0.2,2.3,0.2,3.9,0.2
			c1.9,0,3.5-0.1,4.7-0.4c1.5-0.3,2.7-1,3.5-2.1c0.7-1,1.1-2.3,1.1-4c0-1.8-0.5-3.2-1.4-4.2c-0.5-0.6-1.2-1-2-1.4
			c0.6-0.4,1.2-0.9,1.6-1.5c0.6-1,0.9-2.2,0.9-3.6c0-0.1,0-0.2,0-0.3l1.2-0.1l0.2-1.5l0.2-1.8l0.3-2.3h-2.3h-4.3
			C184.1,229,182.9,228.9,181.4,228.9L181.4,228.9z"/>
	</g>
	<g>
		<path class="st5" d="M190.8,246.1v-15.8h6.1v15.8H190.8z M192.9,230.1c-1.4,0-2.2-0.9-2.2-2.3v-1.5c0-1.4,0.9-2.3,2.2-2.3h1.8
			c1.4,0,2.2,0.9,2.2,2.3v1.5c0,1.4-0.9,2.3-2.2,2.3H192.9z"/>
		<path class="st6" d="M194.7,225.1c0.8,0,1.2,0.4,1.2,1.3v1.5c0,0.8-0.4,1.3-1.2,1.3h-1.8c-0.8,0-1.2-0.4-1.2-1.3v-1.5
			c0-0.8,0.4-1.3,1.2-1.3H194.7 M195.9,231.2v13.8h-4.1v-13.8H195.9 M194.7,223.1h-1.8c-1.9,0-3.2,1.3-3.2,3.3v1.5
			c0,0.5,0.1,1,0.2,1.4h-0.2v2v13.8v2h2h4.1h2v-2v-13.8v-2h-0.2c0.2-0.4,0.2-0.9,0.2-1.4v-1.5C198,224.4,196.7,223.1,194.7,223.1
			L194.7,223.1z"/>
	</g>
	<g>
		<path class="st5" d="M206,246.4c-1.9,0-3.4-0.3-4.5-0.8c-1.2-0.6-2.2-1.5-2.7-2.8c-0.5-1.2-0.8-2.7-0.8-4.6c0-1.9,0.3-3.5,0.8-4.7
			c0.6-1.3,1.5-2.2,2.7-2.8c1.2-0.5,2.7-0.8,4.5-0.8c0.5,0,1.1,0,1.7,0.1c0.6,0,1.3,0.1,1.9,0.3c0.7,0.1,1.3,0.3,1.9,0.6l0.7,0.3
			l-0.7,4.2l-3-0.1c-0.7,0-1.3,0-1.8,0c-0.9,0-1.3,0.1-1.6,0.2c-0.2,0.1-0.4,0.2-0.5,0.6c-0.1,0.3-0.3,0.9-0.3,2
			c0,1.1,0.1,1.7,0.3,2.1c0.2,0.4,0.4,0.6,0.5,0.6c0.2,0.1,0.7,0.2,1.6,0.2c0.3,0,0.7,0,1.1,0c0.5,0,1,0,1.5-0.1
			c0.5,0,1-0.1,1.5-0.1l1-0.1l0.6,4.4l-0.7,0.3c-0.8,0.4-1.8,0.6-2.8,0.8C207.9,246.3,206.9,246.4,206,246.4z"/>
		<path class="st6" d="M206,230.9c0.5,0,1.1,0,1.7,0.1c0.6,0,1.2,0.1,1.8,0.3c0.6,0.1,1.2,0.3,1.7,0.5l-0.4,2.6
			c-0.7,0-1.5,0-2.1-0.1c-0.7,0-1.3,0-1.8,0c-0.8,0-1.5,0.1-2,0.3c-0.5,0.2-0.8,0.6-1,1.2c-0.2,0.6-0.3,1.4-0.3,2.4
			c0,1,0.1,1.8,0.3,2.4c0.2,0.6,0.6,1,1,1.2c0.5,0.2,1.1,0.3,2,0.3c0.3,0,0.7,0,1.1,0c0.5,0,1,0,1.5-0.1c0.5,0,1.1-0.1,1.6-0.2
			l0.4,2.6c-0.7,0.3-1.6,0.6-2.5,0.7c-1,0.1-1.9,0.2-2.8,0.2c-1.7,0-3.1-0.2-4.1-0.7c-1-0.5-1.8-1.2-2.2-2.3
			c-0.4-1.1-0.7-2.5-0.7-4.3c0-1.8,0.2-3.2,0.7-4.3c0.5-1.1,1.2-1.8,2.2-2.3C202.9,231.1,204.3,230.9,206,230.9 M206,228.9
			c-2,0-3.6,0.3-4.9,0.9c-1.5,0.7-2.6,1.8-3.2,3.3c-0.6,1.3-0.8,3-0.8,5c0,2.1,0.3,3.7,0.8,5c0.6,1.5,1.7,2.7,3.2,3.3
			c1.3,0.6,2.9,0.9,4.9,0.9c1,0,2.1-0.1,3.1-0.2c1.1-0.2,2.2-0.5,3.1-0.9l1.4-0.6l-0.2-1.5l-0.4-2.6l-0.3-2l-2,0.3
			c-0.5,0.1-0.9,0.1-1.4,0.1c-0.5,0-1,0.1-1.5,0.1c-0.4,0-0.8,0-1.1,0c-0.7,0-1-0.1-1.1-0.1c0,0,0,0,0-0.1c-0.1-0.2-0.2-0.7-0.2-1.7
			c0-1,0.1-1.5,0.2-1.7c0-0.1,0.1-0.1,0.1-0.1c0,0,0.4-0.1,1.1-0.1c0.5,0,1.1,0,1.8,0c0.7,0,1.4,0,2.1,0.1l1.7,0l0.3-1.7l0.4-2.6
			l0.3-1.5l-1.4-0.6c-0.6-0.3-1.3-0.5-2.1-0.7c-0.7-0.1-1.4-0.2-2-0.3C207.1,228.9,206.5,228.9,206,228.9L206,228.9z"/>
	</g>
	<g>
		<path class="st5" d="M224.4,246.2c-1.5,0-2.7-0.5-3.7-1.4c-1-0.9-1.4-2.1-1.4-3.5v-11.7c0-1.5,0.5-2.7,1.5-3.6
			c0.9-0.9,2.2-1.3,3.7-1.3c1,0,2.1,0,3.2,0c1.1,0,2.1,0,3.2,0.1c1.1,0,2.1,0.1,2.9,0.2l1,0.1l-0.3,5H226c-0.2,0-0.3,0-0.3,0
			c0,0-0.1,0.1-0.1,0.4v2h7.8v5h-7.8v2.8c0,0.2,0,0.3,0.1,0.4c0,0,0.1,0.1,0.3,0.1h8.4l0.3,5l-1,0.1c-0.9,0.1-1.9,0.1-2.9,0.2
			c-1,0-2.1,0.1-3.2,0.1C226.5,246.2,225.4,246.2,224.4,246.2z"/>
		<path class="st6" d="M224.4,225.7c1,0,2.1,0,3.2,0c1.1,0,2.1,0,3.1,0.1c1,0,2,0.1,2.9,0.2l-0.2,3.1H226c-0.5,0-0.8,0.1-1,0.4
			c-0.2,0.2-0.3,0.6-0.3,1.1v3h7.8v3h-7.8v3.8c0,0.5,0.1,0.8,0.3,1.1c0.2,0.2,0.6,0.4,1,0.4h7.4l0.2,3.1c-0.9,0.1-1.8,0.1-2.9,0.2
			c-1,0-2.1,0.1-3.1,0.1c-1.1,0-2.1,0-3.2,0c-1.2,0-2.2-0.4-3-1.1c-0.8-0.7-1.1-1.7-1.1-2.8v-11.7c0-1.2,0.4-2.1,1.1-2.8
			C222.2,226,223.2,225.7,224.4,225.7 M224.4,223.7c-1.7,0-3.2,0.6-4.4,1.6c-1.2,1.1-1.8,2.6-1.8,4.3v11.7c0,1.7,0.6,3.2,1.8,4.3
			c1.1,1.1,2.6,1.6,4.3,1.6c1,0,2.1,0,3.2,0c1.1,0,2.1,0,3.2-0.1c1,0,2-0.1,3-0.2l1.9-0.2l-0.1-1.9l-0.2-3.1l-0.1-1.9h-1.9h-6.8
			v-1.2h5.8h2v-2v-3v-2h-2h-5.8v-0.4l6.8,0h1.9l0.1-1.9l0.2-3.1l0.1-1.9l-1.9-0.2c-0.9-0.1-1.9-0.2-3-0.2c-1,0-2-0.1-3.2-0.1
			C226.5,223.7,225.5,223.7,224.4,223.7L224.4,223.7z"/>
	</g>
	<g>
		<path class="st5" d="M244.9,246.1V236c0-0.4,0-0.5-0.1-0.6c0,0,0,0,0,0c0,0-0.2,0-0.4,0c-0.5,0-1,0.1-1.5,0.3
			c-0.4,0.1-0.8,0.3-1.3,0.6v9.9h-6.1v-15.8h5.2l0.2,1.3c0.6-0.4,1.2-0.7,1.8-1c1.2-0.5,2.3-0.8,3.5-0.8c3.2,0,4.9,1.7,4.9,4.8v11.4
			H244.9z"/>
		<path class="st6" d="M246.2,230.9c2.6,0,3.9,1.3,3.9,3.8v10.4h-4.1V236c0-0.6-0.1-1-0.3-1.3c-0.2-0.2-0.6-0.3-1.1-0.3
			c-0.6,0-1.2,0.1-1.9,0.3c-0.5,0.2-1.2,0.5-1.9,0.9v9.5h-4.2v-13.8h3.3l0.4,2.1c0.9-0.8,1.9-1.4,2.9-1.8
			C244.1,231.1,245.2,230.9,246.2,230.9 M246.2,228.9c-1.3,0-2.6,0.3-3.8,0.8c-0.2,0.1-0.4,0.2-0.6,0.3l-0.1-0.8h-1.7h-3.3h-2v2
			v13.8v2h2h4.2h2v-2v-8.2c0.2-0.1,0.4-0.2,0.6-0.3c0.2-0.1,0.4-0.1,0.6-0.2v8.7v2h2h4.1h2v-2v-10.4
			C252.1,231.1,249.9,228.9,246.2,228.9L246.2,228.9z"/>
	</g>
	<g>
		<path class="st5" d="M257.9,246.1c-0.5,0-1-0.2-1.4-0.5c-0.4-0.3-0.7-0.7-0.8-1.2l-5-14.2h6.6l2.6,8.8l2.5-8.8h6.6l-5,14.2
			c-0.2,0.5-0.5,0.9-0.9,1.2c-0.4,0.3-0.9,0.5-1.4,0.5H257.9z"/>
		<path class="st6" d="M267.5,231.2l-4.6,12.9c-0.1,0.3-0.3,0.5-0.5,0.7s-0.5,0.3-0.8,0.3h-3.6c-0.3,0-0.6-0.1-0.8-0.3
			s-0.4-0.4-0.5-0.7l-4.6-12.9h4.4l2.5,8.7c0.1,0.4,0.2,0.8,0.3,1.3c0.1,0.4,0.2,0.8,0.3,1.2h0.4c0.1-0.4,0.2-0.8,0.3-1.2
			c0.1-0.4,0.2-0.8,0.3-1.2l2.5-8.7H267.5 M270.3,229.2h-2.8h-4.4h-1.5l-0.4,1.4l-1.4,4.8l-1.4-4.8l-0.4-1.4h-1.5H252h-2.8l0.9,2.7
			l4.6,12.9c0.3,0.7,0.7,1.2,1.2,1.6c0.6,0.4,1.3,0.7,2,0.7h3.6c0.8,0,1.5-0.2,2-0.7c0.5-0.4,0.9-0.9,1.2-1.6l4.6-12.9L270.3,229.2
			L270.3,229.2z"/>
	</g>
	<g>
		<path class="st5" d="M268.7,246.1v-15.8h6.1v15.8H268.7z M270.8,230.1c-1.4,0-2.2-0.9-2.2-2.3v-1.5c0-1.4,0.9-2.3,2.2-2.3h1.8
			c1.4,0,2.2,0.9,2.2,2.3v1.5c0,1.4-0.9,2.3-2.2,2.3H270.8z"/>
		<path class="st6" d="M272.6,225.1c0.8,0,1.2,0.4,1.2,1.3v1.5c0,0.8-0.4,1.3-1.2,1.3h-1.8c-0.8,0-1.2-0.4-1.2-1.3v-1.5
			c0-0.8,0.4-1.3,1.2-1.3H272.6 M273.8,231.2v13.8h-4.1v-13.8H273.8 M272.6,223.1h-1.8c-1.9,0-3.2,1.3-3.2,3.3v1.5
			c0,0.5,0.1,1,0.2,1.4h-0.2v2v13.8v2h2h4.1h2v-2v-13.8v-2h-0.2c0.2-0.4,0.2-0.9,0.2-1.4v-1.5C275.9,224.4,274.6,223.1,272.6,223.1
			L272.6,223.1z"/>
	</g>
	<g>
		<path class="st5" d="M276.4,246.1v-15.8h5.1l0.2,1.3c0.6-0.4,1.1-0.7,1.7-0.9c1.1-0.5,2.2-0.8,3.3-0.8h1.8l-0.6,5.8h-2.1
			c-0.6,0-1.2,0.1-1.8,0.2c-0.4,0.1-1,0.3-1.5,0.5v9.7H276.4z"/>
		<path class="st6" d="M287.4,230.9l-0.4,3.8h-1.1c-0.7,0-1.3,0.1-2.1,0.3c-0.6,0.2-1.4,0.4-2.3,0.7v9.4h-4.1v-13.8h3.2l0.4,2.1
			c0.9-0.8,1.8-1.4,2.8-1.8c1-0.4,1.9-0.7,2.9-0.7H287.4 M289.6,228.9h-2.2h-0.7c-1.2,0-2.4,0.3-3.7,0.8c-0.2,0.1-0.3,0.2-0.5,0.3
			l-0.1-0.7h-1.7h-3.2h-2v2v13.8v2h2h4.1h2v-2v-7.9c0.3-0.1,0.5-0.2,0.8-0.2c0.5-0.1,1-0.2,1.5-0.2h1.1h1.8l0.2-1.8l0.4-3.8
			L289.6,228.9L289.6,228.9z"/>
	</g>
	<g>
		<path class="st5" d="M295.9,246.4c-1.9,0-3.4-0.3-4.6-0.8c-1.3-0.6-2.2-1.5-2.8-2.8c-0.5-1.2-0.8-2.7-0.8-4.6c0-2,0.3-3.5,0.8-4.7
			c0.6-1.3,1.5-2.2,2.8-2.8c1.2-0.5,2.7-0.8,4.6-0.8c1.9,0,3.4,0.3,4.6,0.8c1.3,0.6,2.2,1.5,2.8,2.8c0.5,1.2,0.8,2.7,0.8,4.7
			c0,1.9-0.3,3.4-0.8,4.6c-0.6,1.3-1.5,2.2-2.8,2.8C299.3,246.2,297.8,246.4,295.9,246.4z M295.9,234.9c-0.7,0-1,0.1-1.2,0.2
			c-0.2,0.1-0.3,0.3-0.4,0.7c-0.1,0.5-0.2,1.3-0.2,2.4c0,1,0.1,1.8,0.2,2.3c0.1,0.3,0.2,0.6,0.4,0.7c0.2,0.1,0.5,0.2,1.2,0.2
			s1-0.1,1.2-0.2c0.2-0.1,0.3-0.3,0.4-0.7c0.1-0.5,0.2-1.3,0.2-2.3c0-1-0.1-1.8-0.2-2.4c-0.1-0.4-0.2-0.6-0.4-0.7
			C296.9,235,296.6,234.9,295.9,234.9z"/>
		<path class="st6" d="M295.9,230.9c1.7,0,3.1,0.2,4.2,0.7c1,0.5,1.8,1.2,2.3,2.3c0.5,1.1,0.7,2.5,0.7,4.3c0,1.8-0.2,3.2-0.7,4.2
			c-0.5,1.1-1.2,1.8-2.3,2.3c-1,0.5-2.4,0.7-4.2,0.7c-1.7,0-3.1-0.2-4.2-0.7c-1.1-0.5-1.8-1.2-2.3-2.3c-0.5-1.1-0.7-2.5-0.7-4.2
			c0-1.8,0.2-3.2,0.7-4.3c0.5-1.1,1.2-1.8,2.3-2.3C292.8,231.1,294.2,230.9,295.9,230.9 M295.9,242.4c0.7,0,1.3-0.1,1.7-0.3
			s0.7-0.7,0.9-1.3s0.3-1.5,0.3-2.6c0-1.1-0.1-2-0.3-2.6c-0.2-0.6-0.5-1-0.9-1.3c-0.4-0.2-1-0.4-1.7-0.4s-1.3,0.1-1.7,0.4
			c-0.4,0.2-0.7,0.7-0.9,1.3c-0.2,0.6-0.3,1.5-0.3,2.6c0,1.1,0.1,2,0.3,2.6s0.5,1,0.9,1.3C294.6,242.3,295.2,242.4,295.9,242.4
			 M295.9,228.9c-2,0-3.7,0.3-5,0.9c-1.5,0.7-2.6,1.8-3.3,3.3c-0.6,1.3-0.9,3-0.9,5.1c0,2.1,0.3,3.7,0.9,5c0.7,1.5,1.8,2.6,3.3,3.3
			c1.3,0.6,2.9,0.9,5,0.9c2,0,3.7-0.3,5-0.9c1.5-0.7,2.6-1.8,3.3-3.3c0.6-1.3,0.8-3,0.8-5c0-2.1-0.3-3.7-0.8-5.1
			c-0.7-1.5-1.8-2.7-3.3-3.3C299.6,229.2,298,228.9,295.9,228.9L295.9,228.9z M295.3,236c0.1,0,0.3-0.1,0.6-0.1c0.3,0,0.5,0,0.6,0.1
			c0,0,0,0.1,0,0.1c0.1,0.2,0.2,0.9,0.2,2.1c0,1.2-0.1,1.8-0.2,2.1c0,0,0,0.1,0,0.1c-0.1,0-0.3,0.1-0.6,0.1c-0.3,0-0.5,0-0.6-0.1
			c0,0,0-0.1,0-0.1c-0.1-0.3-0.2-0.9-0.2-2.1c0-1.3,0.1-1.9,0.2-2.1C295.3,236,295.3,236,295.3,236L295.3,236z"/>
	</g>
	<g>
		<path class="st5" d="M314.4,246.1V236c0-0.4-0.1-0.5-0.1-0.6c0,0,0,0,0,0c0,0-0.2,0-0.4,0c-0.5,0-1,0.1-1.5,0.3
			c-0.4,0.1-0.8,0.3-1.3,0.6v9.9H305v-15.8h5.2l0.2,1.3c0.6-0.4,1.2-0.7,1.8-1c1.2-0.5,2.3-0.8,3.5-0.8c3.2,0,4.9,1.7,4.9,4.8v11.4
			H314.4z"/>
		<path class="st6" d="M315.7,230.9c2.6,0,3.9,1.3,3.9,3.8v10.4h-4.1V236c0-0.6-0.1-1-0.3-1.3c-0.2-0.2-0.6-0.3-1.1-0.3
			c-0.6,0-1.2,0.1-1.9,0.3c-0.5,0.2-1.2,0.5-1.9,0.9v9.5H306v-13.8h3.3l0.4,2.1c0.9-0.8,1.9-1.4,2.9-1.8
			C313.6,231.1,314.6,230.9,315.7,230.9 M315.7,228.9c-1.3,0-2.6,0.3-3.8,0.8c-0.2,0.1-0.4,0.2-0.6,0.3l-0.1-0.8h-1.7H306h-2v2v13.8
			v2h2h4.1h2v-2v-8.2c0.2-0.1,0.4-0.2,0.6-0.3c0.2-0.1,0.4-0.1,0.6-0.2v8.7v2h2h4.1h2v-2v-10.4C321.6,231.1,319.4,228.9,315.7,228.9
			L315.7,228.9z"/>
	</g>
	<g>
		<path class="st5" d="M339.3,246.1V236c0-0.4-0.1-0.5-0.1-0.6c0,0,0,0,0,0c0,0-0.1,0-0.4,0c-0.2,0-0.4,0-0.7,0.1
			c-0.3,0.1-0.5,0.2-0.9,0.4c-0.2,0.1-0.3,0.2-0.5,0.3v9.9h-6V236c0-0.4-0.1-0.5-0.1-0.5c0,0-0.2-0.1-0.5-0.1c-0.2,0-0.5,0-0.7,0.1
			c-0.2,0-0.4,0.1-0.9,0.4c-0.1,0.1-0.3,0.2-0.5,0.3v10H322v-15.8h5.2l0.2,1.2c0.4-0.3,0.9-0.6,1.3-0.8c1-0.5,2.1-0.8,3.3-0.8
			c1.5,0,2.7,0.4,3.5,1.3c0.1,0.1,0.3,0.3,0.4,0.4c0.5-0.4,1-0.7,1.5-0.9c1-0.5,2.1-0.8,3.2-0.8c1.5,0,2.7,0.4,3.6,1.3
			c0.8,0.9,1.3,2.1,1.3,3.6v11.4H339.3z"/>
		<path class="st6" d="M340.5,230.9c1.2,0,2.2,0.3,2.9,1c0.7,0.7,1,1.6,1,2.9v10.4h-4.1V236c0-0.6-0.1-1-0.3-1.2
			c-0.2-0.2-0.6-0.4-1.2-0.4c-0.3,0-0.7,0-1,0.1c-0.3,0.1-0.6,0.2-1,0.4c-0.3,0.2-0.7,0.4-1.1,0.6v9.5h-4V236c0-0.6-0.1-1-0.4-1.3
			c-0.2-0.2-0.6-0.4-1.2-0.4c-0.3,0-0.6,0-0.9,0.1c-0.3,0.1-0.7,0.2-1.1,0.4c-0.3,0.1-0.6,0.3-1,0.6v9.6H323v-13.8h3.3l0.3,2.1
			c0.8-0.8,1.7-1.4,2.5-1.8c0.9-0.4,1.8-0.7,2.8-0.7c1.2,0,2.2,0.3,2.8,1c0.3,0.3,0.6,0.8,0.8,1.3c0.8-0.7,1.5-1.2,2.3-1.6
			C338.6,231.1,339.6,230.9,340.5,230.9 M340.5,228.9c-1.3,0-2.6,0.3-3.7,0.9c-0.3,0.1-0.6,0.3-0.9,0.5c-1-0.9-2.4-1.4-4-1.4
			c-1.3,0-2.6,0.3-3.7,0.9c0,0-0.1,0-0.1,0l-0.1-0.6h-1.7H323h-2v2v13.8v2h2h4.1h2v-2v-8.4c0.3-0.1,0.5-0.2,0.6-0.2v8.6v2h2h4h2v-2
			v-8.3c0,0,0,0,0,0c0.2-0.1,0.4-0.2,0.6-0.3v8.6v2h2h4.1h2v-2v-10.4c0-1.8-0.5-3.2-1.6-4.3C343.8,229.4,342.3,228.9,340.5,228.9
			L340.5,228.9z"/>
	</g>
	<g>
		<path class="st5" d="M354.5,246.4c-1.9,0-3.5-0.3-4.7-0.9c-1.3-0.6-2.2-1.6-2.8-2.9c-0.5-1.2-0.8-2.7-0.8-4.5c0-2,0.3-3.5,0.8-4.7
			c0.6-1.3,1.5-2.2,2.8-2.8c1.2-0.5,2.7-0.8,4.5-0.8c2.6,0,4.4,0.5,5.6,1.4c1.3,1,1.9,2.5,1.9,4.3c0,1.5-0.4,2.7-1.3,3.6
			c-0.9,0.8-2.2,1.2-4.1,1.2H353c0.1,0.3,0.3,0.4,0.4,0.5c0.3,0.1,0.7,0.3,1.6,0.3c0.6,0,1.4,0,2.3-0.1c0.9,0,1.8-0.1,2.8-0.2l1-0.1
			l0.6,4.2l-0.7,0.3c-0.6,0.3-1.3,0.5-2.1,0.7c-0.7,0.2-1.5,0.3-2.2,0.3C356,246.4,355.2,246.4,354.5,246.4z M355.5,236.1
			c0.2,0,0.3,0,0.4,0c0-0.1,0.1-0.2,0.1-0.5c0-0.4-0.1-0.5-0.1-0.5c-0.1,0-0.4-0.2-1.3-0.2c-0.8,0-1.2,0.1-1.4,0.2
			c-0.1,0-0.2,0.1-0.4,0.6c0,0.1-0.1,0.3-0.1,0.5H355.5z"/>
		<path class="st6" d="M354.4,230.9c2.3,0,4,0.4,5,1.2c1,0.8,1.5,2,1.5,3.5c0,1.3-0.3,2.2-1,2.9c-0.7,0.6-1.8,0.9-3.4,0.9h-4.9
			c0,0.4,0.1,0.8,0.2,1.1c0.2,0.6,0.5,1.1,1,1.3c0.5,0.2,1.2,0.4,2.1,0.4c0.6,0,1.4,0,2.4-0.1c0.9,0,1.9-0.1,2.8-0.2l0.4,2.5
			c-0.5,0.3-1.2,0.5-1.9,0.6c-0.7,0.2-1.4,0.3-2.1,0.3c-0.7,0.1-1.4,0.1-2.1,0.1c-1.8,0-3.2-0.2-4.2-0.8c-1.1-0.5-1.8-1.3-2.3-2.4
			c-0.5-1.1-0.7-2.4-0.7-4.1c0-1.8,0.2-3.2,0.7-4.3c0.5-1.1,1.2-1.8,2.3-2.3C351.3,231.1,352.7,230.9,354.4,230.9 M351.6,237.1h3.8
			c0.6,0,1-0.1,1.2-0.4c0.2-0.3,0.3-0.6,0.3-1.1c0-0.6-0.2-1.1-0.6-1.4c-0.4-0.2-1-0.4-1.8-0.4c-0.8,0-1.4,0.1-1.8,0.3
			c-0.4,0.2-0.7,0.6-0.9,1.2C351.7,235.7,351.7,236.3,351.6,237.1 M354.4,228.9c-2,0-3.6,0.3-4.9,0.9c-1.5,0.7-2.6,1.8-3.3,3.3
			c-0.6,1.3-0.9,3-0.9,5.1c0,2,0.3,3.6,0.9,4.9c0.7,1.5,1.8,2.6,3.3,3.3c1.3,0.6,3,1,5.1,1c0.7,0,1.5,0,2.3-0.1
			c0.8-0.1,1.6-0.2,2.4-0.4c0.8-0.2,1.6-0.4,2.3-0.8l1.3-0.6l-0.2-1.5l-0.4-2.5l-0.3-1.9l-0.3,0c0.9-1,1.4-2.4,1.3-4.1
			c0-2.7-1.2-4.3-2.3-5.1C359.3,229.4,357.2,228.9,354.4,228.9L354.4,228.9z"/>
	</g>
	<g>
		<path class="st5" d="M372.2,246.1V236c0-0.4-0.1-0.5-0.1-0.6c0,0,0,0,0,0c0,0-0.2,0-0.4,0c-0.5,0-1,0.1-1.5,0.3
			c-0.4,0.1-0.8,0.3-1.3,0.6v9.9h-6.1v-15.8h5.2l0.2,1.3c0.6-0.4,1.2-0.7,1.8-1c1.2-0.5,2.3-0.8,3.5-0.8c3.2,0,4.9,1.7,4.9,4.8v11.4
			H372.2z"/>
		<path class="st6" d="M373.4,230.9c2.6,0,3.9,1.3,3.9,3.8v10.4h-4.1V236c0-0.6-0.1-1-0.3-1.3c-0.2-0.2-0.6-0.3-1.2-0.3
			c-0.6,0-1.2,0.1-1.8,0.3c-0.5,0.2-1.2,0.5-1.9,0.9v9.5h-4.1v-13.8h3.3l0.4,2.1c0.9-0.8,1.9-1.4,2.9-1.8
			C371.4,231.1,372.4,230.9,373.4,230.9 M373.4,228.9c-1.3,0-2.6,0.3-3.8,0.8c-0.2,0.1-0.4,0.2-0.6,0.3l-0.1-0.8h-1.7h-3.3h-2v2
			v13.8v2h2h4.1h2v-2v-8.2c0.2-0.1,0.4-0.2,0.6-0.3c0.2-0.1,0.4-0.1,0.6-0.2v8.7v2h2h4.1h2v-2v-10.4
			C379.4,231.1,377.2,228.9,373.4,228.9L373.4,228.9z"/>
	</g>
	<g>
		<path class="st5" d="M386,246.4c-1.5,0-2.7-0.4-3.6-1.3c-0.9-0.9-1.4-2.1-1.4-3.6l0-6.6h-2.4v-4.5l2.4-0.1l0-3.9h6.2v3.8h3.9v4.7
			h-3.9v5.7c0,0.2,0,0.3,0,0.4c0,0,0,0,0,0c0,0,0.2,0,0.5,0h2.6l0.7,4.5l-0.8,0.3c-0.4,0.2-0.9,0.3-1.4,0.3c-0.5,0.1-1,0.2-1.6,0.2
			C386.9,246.4,386.4,246.4,386,246.4z"/>
		<path class="st6" d="M386.2,227.4v3.8h3.9v2.7h-3.9v6.7c0,0.5,0.1,0.9,0.4,1.1c0.2,0.2,0.6,0.3,1.2,0.3h1.8l0.4,2.8
			c-0.3,0.1-0.8,0.2-1.2,0.3c-0.5,0.1-1,0.2-1.5,0.2c-0.5,0.1-0.9,0.1-1.2,0.1c-1.2,0-2.2-0.3-2.9-1c-0.7-0.7-1-1.6-1-2.8l0-7.6
			h-2.4v-2.6l2.4-0.1l0-3.9H386.2 M388.2,225.4h-2H382h-2l0,2l0,1.9l-0.5,0l-1.9,0.1v1.9v2.6v2h2h0.4l0,5.6c0,1.8,0.6,3.2,1.7,4.3
			c1.1,1,2.5,1.6,4.3,1.6c0.4,0,0.9,0,1.4-0.1c0.5,0,1.1-0.1,1.6-0.2c0.6-0.1,1.1-0.2,1.6-0.4l1.6-0.6l-0.3-1.6l-0.4-2.8l-0.3-1.7
			h-1.7h-1.3V236h1.9h2v-2v-2.7v-2h-2h-1.9v-1.8V225.4L388.2,225.4z"/>
	</g>
	<g>
		<path class="st5" d="M396.2,246.4c-1,0-1.9-0.2-2.7-0.5c-0.9-0.4-1.5-0.9-2-1.7c-0.5-0.8-0.8-1.7-0.8-2.7v-1.4
			c0-1.4,0.5-2.5,1.5-3.4c0.9-0.8,2.2-1.1,3.7-1.1h4c0-0.2-0.1-0.3-0.1-0.4l0,0c0,0-0.2-0.2-1.1-0.2c-0.7,0-1.6,0-2.6,0.1
			c-1.1,0-2.1,0.1-3.2,0.2l-0.9,0.1l-0.7-4.6l0.9-0.2c0.7-0.1,1.5-0.3,2.4-0.3c0.9-0.1,1.8-0.2,2.7-0.2c1.1-0.1,1.8-0.1,2.4-0.1
			c1.3,0,2.4,0.2,3.3,0.5c1,0.4,1.8,1.1,2.3,2c0.5,0.9,0.8,2.1,0.8,3.5v10.1H401l-0.2-1.2c-0.5,0.4-1.2,0.8-1.9,1.1
			C398.1,246.2,397.2,246.4,396.2,246.4z M396.9,240c0,0,0,0.1,0,0.3v0.7c0,0.2,0,0.3,0.1,0.4c0,0,0.1,0.1,0.6,0.1
			c0.4,0,0.8-0.1,1.2-0.2c0.4-0.1,0.8-0.3,1.2-0.6v-0.6l-2.7,0C397,239.9,396.9,240,396.9,240z"/>
		<path class="st6" d="M399.8,230.9c1.2,0,2.1,0.2,2.9,0.5c0.8,0.3,1.4,0.8,1.8,1.6c0.4,0.7,0.6,1.8,0.6,3v9.1h-3.3l-0.4-2.2
			c-0.3,0.4-0.7,0.7-1.1,1.1c-0.5,0.4-1.1,0.7-1.8,1c-0.7,0.3-1.4,0.4-2.3,0.4c-0.8,0-1.6-0.1-2.3-0.4c-0.7-0.3-1.2-0.7-1.6-1.3
			c-0.4-0.6-0.6-1.3-0.6-2.2v-1.4c0-1.1,0.4-2,1.1-2.6s1.8-0.9,3.1-0.9h5v-0.7c0-0.6-0.2-1.1-0.5-1.4c-0.3-0.3-0.9-0.4-1.8-0.4
			c-0.7,0-1.6,0-2.7,0.1c-1.1,0-2.2,0.1-3.3,0.2l-0.4-2.8c0.7-0.1,1.4-0.2,2.3-0.3c0.9-0.1,1.8-0.2,2.6-0.2
			C398.3,230.9,399.1,230.9,399.8,230.9 M397.5,242.4c0.5,0,1-0.1,1.6-0.3c0.6-0.2,1.1-0.5,1.7-0.9c0.1,0,0.1-0.1,0.2-0.1v-2.2
			l-3.7,0c-0.5,0-0.9,0.1-1.1,0.4c-0.2,0.2-0.3,0.6-0.3,1v0.7c0,0.5,0.1,0.8,0.4,1.1C396.5,242.3,396.9,242.4,397.5,242.4
			 M399.8,228.9c-0.7,0-1.4,0-2.5,0.1c-0.9,0.1-1.8,0.2-2.7,0.2c-0.9,0.1-1.8,0.2-2.5,0.4l-1.9,0.4l0.3,1.9l0.4,2.8l0.3,1.8
			c-0.9,1-1.4,2.2-1.4,3.7v1.4c0,1.3,0.3,2.4,0.9,3.3c0.6,0.9,1.4,1.6,2.5,2c0.9,0.4,2,0.6,3.1,0.6c1.1,0,2.2-0.2,3.1-0.6
			c0.3-0.1,0.5-0.2,0.8-0.4l0.1,0.6h1.6h3.3h2v-2v-9.1c0-1.7-0.3-3-0.9-4c-0.7-1.1-1.6-2-2.8-2.4
			C402.4,229.1,401.1,228.9,399.8,228.9L399.8,228.9z"/>
	</g>
	<g>
		<path class="st5" d="M412.7,246.4c-1.5,0-2.7-0.4-3.6-1.2c-0.9-0.8-1.4-2-1.4-3.5v-17.2h6.1l0,16.2c0,0.1,0,0.2,0.1,0.3
			c0.1,0.1,0.3,0.1,0.6,0.1h2l0.7,4.4l-0.7,0.3c-0.3,0.2-0.7,0.3-1.2,0.4c-0.4,0.1-0.9,0.2-1.4,0.2
			C413.4,246.4,413,246.4,412.7,246.4z"/>
		<path class="st6" d="M412.8,225.5l0,15.2c0,0.5,0.1,0.8,0.4,1s0.7,0.3,1.2,0.3h1.1l0.5,2.8c-0.2,0.1-0.5,0.2-1,0.3
			c-0.4,0.1-0.8,0.1-1.3,0.2c-0.4,0-0.8,0.1-1.1,0.1c-1.2,0-2.2-0.3-3-1c-0.7-0.7-1.1-1.6-1.1-2.7v-16.2H412.8 M414.8,223.5h-2h-4.1
			h-2v2v16.2c0,2.2,1,3.5,1.8,4.2c1.1,1,2.6,1.5,4.3,1.5c0.4,0,0.8,0,1.3-0.1c0.5-0.1,1-0.1,1.4-0.2c0.6-0.1,1.1-0.3,1.4-0.5
			l1.3-0.7l-0.2-1.5l-0.5-2.8l-0.3-1.7h-1.7h-0.8l0-14.6L414.8,223.5L414.8,223.5z"/>
	</g>
	<g>
		<path class="st5" d="M434.3,246.1l-1.4-5.1h-5.1l-1.4,5.1h-6.5l6-19.5c0.1-0.5,0.4-1,0.9-1.3c0.4-0.3,1-0.5,1.5-0.5h4.1
			c0.6,0,1.1,0.2,1.6,0.5c0.4,0.3,0.7,0.8,0.9,1.3l6,19.5H434.3z M431.5,235.8l-1.1-4l-1.1,4H431.5z"/>
		<path class="st6" d="M432.4,225.8c0.3,0,0.7,0.1,0.9,0.3c0.3,0.2,0.4,0.5,0.5,0.8l5.6,18.2h-4.4l-1.4-5.1H427l-1.4,5.1h-4.4
			l5.6-18.2c0.1-0.3,0.3-0.6,0.5-0.8c0.3-0.2,0.6-0.3,0.9-0.3H432.4 M427.9,236.8h4.9l-1.6-5.9c-0.1-0.3-0.1-0.6-0.2-1
			c-0.1-0.3-0.1-0.6-0.2-0.9H430c0,0.3-0.1,0.6-0.2,0.9c-0.1,0.3-0.1,0.6-0.2,1L427.9,236.8 M432.4,223.8h-4.1
			c-0.8,0-1.6,0.3-2.2,0.7c-0.6,0.4-1,1.1-1.2,1.8l-5.6,18.2l-0.8,2.6h2.7h4.4h1.5l0.4-1.5l1-3.6h3.6l1,3.6l0.4,1.5h1.5h4.4h2.7
			l-0.8-2.6l-5.6-18.2c-0.2-0.8-0.6-1.4-1.3-1.9C433.9,224,433.2,223.8,432.4,223.8L432.4,223.8z"/>
	</g>
	<g>
		<path class="st5" d="M440.3,246.1v-15.8h5.1l0.2,1.3c0.6-0.4,1.1-0.7,1.7-0.9c1.1-0.5,2.2-0.8,3.3-0.8h1.8l-0.6,5.8h-2
			c-0.6,0-1.2,0.1-1.8,0.2c-0.5,0.1-1,0.3-1.5,0.5v9.7H440.3z"/>
		<path class="st6" d="M451.3,230.9l-0.4,3.8h-1.1c-0.7,0-1.3,0.1-2,0.3c-0.6,0.2-1.4,0.4-2.3,0.7v9.4h-4.2v-13.8h3.2l0.4,2.1
			c0.9-0.8,1.8-1.4,2.8-1.8c1-0.4,2-0.7,2.9-0.7H451.3 M453.6,228.9h-2.2h-0.7c-1.2,0-2.4,0.3-3.7,0.8c-0.2,0.1-0.3,0.2-0.5,0.3
			l-0.1-0.7h-1.7h-3.2h-2v2v13.8v2h2h4.2h2v-2v-7.9c0.3-0.1,0.5-0.2,0.8-0.2c0.6-0.1,1.1-0.2,1.6-0.2h1.1h1.8l0.2-1.8l0.4-3.8
			L453.6,228.9L453.6,228.9z"/>
	</g>
	<g>
		<path class="st5" d="M459.7,246.4c-1.9,0-3.4-0.3-4.5-0.8c-1.2-0.6-2.2-1.5-2.7-2.8c-0.5-1.2-0.8-2.7-0.8-4.6
			c0-1.9,0.3-3.4,0.8-4.7c0.6-1.3,1.5-2.2,2.7-2.8c1.2-0.5,2.7-0.8,4.5-0.8c0.5,0,1.1,0,1.7,0.1c0.6,0,1.3,0.1,1.9,0.3
			c0.7,0.1,1.3,0.3,1.9,0.6l0.7,0.3l-0.7,4.2l-3-0.1c-0.7,0-1.3,0-1.8,0c-0.9,0-1.3,0.1-1.6,0.2c-0.2,0.1-0.4,0.2-0.5,0.6
			c-0.1,0.3-0.3,0.9-0.3,2c0,1.1,0.1,1.7,0.3,2.1c0.2,0.4,0.4,0.6,0.5,0.6c0.2,0.1,0.7,0.2,1.6,0.2c0.3,0,0.7,0,1.1,0
			c0.5,0,1,0,1.5-0.1c0.5,0,1-0.1,1.5-0.1l1-0.1l0.6,4.4l-0.7,0.3c-0.8,0.4-1.8,0.6-2.8,0.8C461.6,246.3,460.6,246.4,459.7,246.4z"
			/>
		<path class="st6" d="M459.7,230.9c0.5,0,1.1,0,1.7,0.1c0.6,0,1.2,0.1,1.8,0.3c0.6,0.1,1.2,0.3,1.7,0.5l-0.4,2.6
			c-0.7,0-1.5,0-2.1-0.1c-0.7,0-1.3,0-1.8,0c-0.8,0-1.5,0.1-2,0.3s-0.8,0.6-1,1.2c-0.2,0.6-0.3,1.4-0.3,2.4c0,1,0.1,1.8,0.3,2.4
			c0.2,0.6,0.6,1,1,1.2s1.1,0.3,2,0.3c0.3,0,0.7,0,1.1,0c0.5,0,1,0,1.5-0.1c0.5,0,1.1-0.1,1.6-0.2l0.4,2.6c-0.7,0.3-1.6,0.6-2.5,0.7
			c-1,0.1-1.9,0.2-2.8,0.2c-1.7,0-3.1-0.2-4.1-0.7c-1-0.5-1.8-1.2-2.2-2.3c-0.4-1.1-0.7-2.5-0.7-4.3c0-1.8,0.2-3.2,0.7-4.3
			c0.5-1.1,1.2-1.8,2.2-2.3C456.6,231.1,458,230.9,459.7,230.9 M459.7,228.9c-2,0-3.6,0.3-4.9,0.9c-1.5,0.7-2.6,1.8-3.2,3.3
			c-0.6,1.3-0.8,3-0.8,5c0,2.1,0.3,3.7,0.8,5c0.6,1.5,1.7,2.7,3.2,3.3c1.3,0.6,2.9,0.9,4.9,0.9c1,0,2.1-0.1,3.1-0.2
			c1.1-0.2,2.2-0.5,3.1-0.9l1.4-0.6l-0.2-1.5l-0.4-2.6l-0.3-2l-2,0.3c-0.5,0.1-0.9,0.1-1.4,0.1c-0.5,0-1,0.1-1.5,0.1
			c-0.4,0-0.8,0-1.1,0c-0.7,0-1-0.1-1.1-0.1c0,0,0,0,0-0.1c-0.1-0.2-0.2-0.7-0.2-1.7c0-1,0.1-1.5,0.2-1.7c0-0.1,0.1-0.1,0.1-0.1
			c0,0,0.4-0.1,1.1-0.1c0.5,0,1.1,0,1.8,0c0.7,0,1.4,0,2.1,0.1l1.7,0l0.3-1.7l0.4-2.6l0.3-1.5l-1.4-0.6c-0.6-0.3-1.3-0.5-2.1-0.7
			c-0.7-0.1-1.4-0.2-2-0.3C460.8,228.9,460.2,228.9,459.7,228.9L459.7,228.9z"/>
	</g>
	<g>
		<path class="st5" d="M476,246.1V236c0-0.4,0-0.5-0.1-0.6c0,0,0,0,0,0c0,0-0.2,0-0.4,0c-0.5,0-1,0.1-1.5,0.3
			c-0.4,0.1-0.8,0.3-1.3,0.5v9.9h-6.1v-21.6h6.1l0,5.8c0,0.3,0,0.6,0,0.9c0.3-0.2,0.6-0.3,1-0.5c1.2-0.5,2.4-0.8,3.5-0.8
			c3.2,0,4.9,1.7,4.9,4.8v11.4H476z"/>
		<path class="st6" d="M471.8,225.5l0,4.8c0,0.7,0,1.4-0.1,2.1c0,0.3-0.1,0.6-0.1,0.9c0.9-0.7,1.7-1.2,2.6-1.6
			c1.1-0.5,2.1-0.7,3.1-0.7c2.6,0,3.9,1.3,3.9,3.8v10.4H477V236c0-0.6-0.1-1-0.3-1.3c-0.2-0.2-0.6-0.3-1.1-0.3
			c-0.6,0-1.2,0.1-1.8,0.3c-0.5,0.2-1.2,0.5-1.9,0.9v9.5h-4.1v-19.6H471.8 M473.8,223.5h-2h-4.1h-2v2v19.6v2h2h4.1h2v-2v-8.2
			c0.2-0.1,0.4-0.2,0.6-0.2c0.2-0.1,0.4-0.1,0.6-0.2v8.6v2h2h4.2h2v-2v-10.4c0-3.7-2.2-5.8-5.9-5.8c-1.1,0-2.3,0.2-3.5,0.7l0-4.1
			L473.8,223.5L473.8,223.5z"/>
	</g>
	<g>
		<path class="st5" d="M488.4,246.4c-1,0-1.9-0.2-2.7-0.5c-0.9-0.4-1.5-0.9-2-1.7c-0.5-0.8-0.8-1.7-0.8-2.7v-1.4
			c0-1.4,0.5-2.5,1.5-3.3c0.9-0.8,2.2-1.2,3.7-1.2h4c0-0.2-0.1-0.3-0.1-0.4c0,0,0,0,0,0c0,0-0.2-0.2-1.1-0.2c-0.7,0-1.6,0-2.6,0.1
			c-1.1,0-2.1,0.1-3.2,0.2l-0.9,0.1l-0.7-4.6l0.9-0.2c0.7-0.1,1.5-0.3,2.4-0.3c0.9-0.1,1.8-0.2,2.7-0.2c1.1-0.1,1.8-0.1,2.4-0.1
			c1.3,0,2.4,0.2,3.3,0.5c1,0.4,1.8,1.1,2.4,2c0.5,0.9,0.8,2.1,0.8,3.5v10.1h-5.1l-0.2-1.2c-0.6,0.4-1.2,0.8-1.9,1.1
			C490.3,246.2,489.4,246.4,488.4,246.4z M489.1,240c0,0,0,0.1,0,0.3v0.7c0,0.2,0,0.3,0.1,0.4c0,0,0.2,0.1,0.6,0.1
			c0.4,0,0.8-0.1,1.2-0.2c0.4-0.1,0.8-0.3,1.2-0.6v-0.6l-2.7,0C489.2,239.9,489.1,240,489.1,240z"/>
		<path class="st6" d="M492,230.9c1.2,0,2.1,0.2,2.9,0.5c0.8,0.3,1.4,0.8,1.8,1.6c0.4,0.7,0.6,1.8,0.6,3v9.1h-3.3l-0.4-2.2
			c-0.3,0.4-0.7,0.7-1.1,1.1c-0.5,0.4-1.1,0.7-1.8,1c-0.7,0.3-1.4,0.4-2.3,0.4c-0.8,0-1.6-0.1-2.3-0.4c-0.7-0.3-1.2-0.7-1.6-1.3
			c-0.4-0.6-0.6-1.3-0.6-2.2v-1.4c0-1.1,0.4-2,1.1-2.6c0.8-0.6,1.8-0.9,3.1-0.9h5v-0.7c0-0.6-0.2-1.1-0.5-1.4
			c-0.3-0.3-0.9-0.4-1.8-0.4c-0.7,0-1.6,0-2.7,0.1c-1.1,0-2.2,0.1-3.3,0.2l-0.4-2.8c0.7-0.1,1.4-0.2,2.3-0.3
			c0.9-0.1,1.8-0.2,2.6-0.2C490.5,230.9,491.3,230.9,492,230.9 M489.7,242.4c0.5,0,1-0.1,1.6-0.3c0.6-0.2,1.1-0.5,1.7-0.9
			c0.1-0.1,0.1-0.1,0.2-0.1v-2.2l-3.7,0c-0.5,0-0.9,0.1-1.1,0.4c-0.2,0.2-0.3,0.6-0.3,1v0.7c0,0.5,0.1,0.8,0.4,1.1
			C488.7,242.3,489.2,242.4,489.7,242.4 M492,228.9c-0.7,0-1.4,0-2.5,0.1c-0.9,0.1-1.8,0.2-2.7,0.2c-0.9,0.1-1.8,0.2-2.5,0.4
			l-1.9,0.4l0.3,1.9l0.4,2.8l0.3,1.8c-0.9,1-1.4,2.2-1.4,3.6v1.4c0,1.3,0.3,2.4,0.9,3.3c0.6,0.9,1.4,1.6,2.4,2
			c0.9,0.4,2,0.6,3.1,0.6c1.1,0,2.1-0.2,3.1-0.6c0.3-0.1,0.5-0.2,0.8-0.4l0.1,0.6h1.6h3.3h2v-2v-9.1c0-1.7-0.3-3-0.9-4
			c-0.7-1.2-1.6-2-2.9-2.5C494.6,229.1,493.3,228.9,492,228.9L492,228.9z"/>
	</g>
	<g>
		<path class="st5" d="M507.5,246.4c-1.9,0-3.5-0.3-4.7-0.9c-1.3-0.6-2.2-1.6-2.8-2.8c-0.5-1.2-0.8-2.7-0.8-4.5
			c0-1.9,0.3-3.5,0.8-4.7c0.6-1.3,1.5-2.2,2.8-2.8c1.2-0.5,2.7-0.8,4.5-0.8c2.6,0,4.4,0.5,5.6,1.4c1.3,1,1.9,2.5,1.9,4.3
			c0,1.5-0.4,2.7-1.3,3.6c-0.9,0.8-2.2,1.2-4.1,1.2h-3.7c0.1,0.3,0.3,0.4,0.4,0.5c0.4,0.2,0.9,0.3,1.6,0.3c0.6,0,1.4,0,2.3-0.1
			c0.9,0,1.9-0.1,2.8-0.2l1-0.1l0.6,4.2l-0.7,0.3c-0.6,0.3-1.3,0.5-2.1,0.7c-0.7,0.2-1.5,0.3-2.2,0.3
			C508.9,246.4,508.2,246.4,507.5,246.4z M508.4,236.1c0.2,0,0.4,0,0.4,0c0-0.1,0.1-0.2,0.1-0.5c0-0.4-0.1-0.5-0.1-0.5
			c0,0-0.3-0.2-1.3-0.2c-0.8,0-1.2,0.1-1.4,0.2c0,0-0.2,0.1-0.4,0.6c0,0.1-0.1,0.3-0.1,0.5H508.4z"/>
		<path class="st6" d="M507.3,230.9c2.3,0,4,0.4,5,1.2c1,0.8,1.5,2,1.5,3.5c0,1.3-0.3,2.2-1,2.9c-0.7,0.6-1.8,0.9-3.4,0.9h-4.9
			c0,0.4,0.1,0.8,0.2,1.1c0.2,0.6,0.6,1.1,1.1,1.3c0.5,0.2,1.2,0.4,2.1,0.4c0.6,0,1.4,0,2.4-0.1s1.9-0.1,2.8-0.2l0.4,2.5
			c-0.5,0.3-1.2,0.5-1.8,0.6c-0.7,0.2-1.4,0.3-2.1,0.3c-0.7,0.1-1.4,0.1-2.1,0.1c-1.8,0-3.2-0.2-4.2-0.8c-1.1-0.5-1.8-1.3-2.3-2.4
			c-0.5-1.1-0.7-2.4-0.7-4.1c0-1.8,0.2-3.2,0.7-4.3c0.5-1.1,1.2-1.8,2.3-2.3C504.3,231.1,505.6,230.9,507.3,230.9 M504.6,237.1h3.8
			c0.6,0,1-0.1,1.2-0.4c0.2-0.3,0.3-0.6,0.3-1.1c0-0.6-0.2-1.1-0.6-1.4s-1-0.4-1.8-0.4c-0.8,0-1.4,0.1-1.8,0.3
			c-0.4,0.2-0.7,0.6-0.9,1.2C504.7,235.7,504.6,236.3,504.6,237.1 M507.3,228.9c-2,0-3.6,0.3-4.9,0.9c-1.5,0.7-2.6,1.8-3.3,3.3
			c-0.6,1.3-0.9,3-0.9,5.1c0,2,0.3,3.6,0.9,4.9c0.7,1.5,1.8,2.6,3.3,3.3c1.3,0.6,3,1,5.1,1c0.7,0,1.5,0,2.3-0.1
			c0.8-0.1,1.6-0.2,2.4-0.4c0.8-0.2,1.6-0.4,2.3-0.8l1.3-0.6l-0.2-1.5l-0.4-2.5l-0.3-1.9l-0.3,0c0.9-1,1.4-2.4,1.3-4.1
			c0-2.7-1.2-4.3-2.3-5.1C512.2,229.4,510.1,228.9,507.3,228.9L507.3,228.9z"/>
	</g>
	<g>
		<path class="st5" d="M523.3,246.4c-1.9,0-3.4-0.3-4.6-0.8c-1.3-0.6-2.2-1.5-2.8-2.8c-0.5-1.2-0.8-2.7-0.8-4.6c0-2,0.3-3.5,0.8-4.7
			c0.6-1.3,1.5-2.2,2.8-2.8c1.2-0.5,2.7-0.8,4.6-0.8c1.9,0,3.4,0.3,4.6,0.8c1.3,0.6,2.2,1.5,2.8,2.8c0.5,1.2,0.8,2.7,0.8,4.7
			c0,1.9-0.3,3.4-0.8,4.6c-0.6,1.3-1.5,2.2-2.8,2.8C526.7,246.2,525.2,246.4,523.3,246.4z M523.3,234.9c-0.7,0-1,0.1-1.2,0.2
			c-0.2,0.1-0.3,0.3-0.4,0.7c-0.1,0.5-0.2,1.3-0.2,2.4c0,1,0.1,1.8,0.2,2.3c0.1,0.3,0.2,0.6,0.4,0.7c0.2,0.1,0.5,0.2,1.2,0.2
			s1-0.1,1.2-0.2c0.2-0.1,0.3-0.3,0.4-0.7c0.1-0.5,0.2-1.3,0.2-2.3c0-1-0.1-1.8-0.2-2.4c-0.1-0.4-0.2-0.6-0.4-0.7
			C524.3,235,524,234.9,523.3,234.9z"/>
		<path class="st6" d="M523.3,230.9c1.7,0,3.1,0.2,4.2,0.7c1,0.5,1.8,1.2,2.3,2.3c0.5,1.1,0.7,2.5,0.7,4.3c0,1.8-0.2,3.2-0.7,4.2
			c-0.5,1.1-1.2,1.8-2.3,2.3c-1,0.5-2.4,0.7-4.2,0.7c-1.7,0-3.1-0.2-4.2-0.7c-1.1-0.5-1.8-1.2-2.3-2.3c-0.5-1.1-0.7-2.5-0.7-4.2
			c0-1.8,0.2-3.2,0.7-4.3c0.5-1.1,1.2-1.8,2.3-2.3C520.2,231.1,521.6,230.9,523.3,230.9 M523.3,242.4c0.7,0,1.3-0.1,1.7-0.3
			c0.4-0.2,0.7-0.7,0.9-1.3s0.3-1.5,0.3-2.6c0-1.1-0.1-2-0.3-2.6c-0.2-0.6-0.5-1-0.9-1.3c-0.4-0.2-1-0.4-1.7-0.4s-1.3,0.1-1.7,0.4
			c-0.4,0.2-0.7,0.7-0.9,1.3c-0.2,0.6-0.3,1.5-0.3,2.6c0,1.1,0.1,2,0.3,2.6s0.5,1,0.9,1.3C522.1,242.3,522.6,242.4,523.3,242.4
			 M523.3,228.9c-2,0-3.7,0.3-5,0.9c-1.5,0.7-2.6,1.8-3.3,3.3c-0.6,1.3-0.9,3-0.9,5.1c0,2.1,0.3,3.7,0.9,5c0.7,1.5,1.8,2.6,3.3,3.3
			c1.3,0.6,2.9,0.9,5,0.9c2,0,3.7-0.3,5-0.9c1.5-0.7,2.6-1.8,3.3-3.3c0.6-1.3,0.8-3,0.8-5c0-2.1-0.3-3.7-0.8-5.1
			c-0.7-1.5-1.8-2.7-3.3-3.3C527,229.2,525.4,228.9,523.3,228.9L523.3,228.9z M522.7,236c0.1,0,0.3-0.1,0.6-0.1c0.3,0,0.5,0,0.6,0.1
			c0,0,0,0.1,0,0.1c0.1,0.2,0.2,0.9,0.2,2.1c0,1.2-0.1,1.8-0.2,2.1c0,0,0,0.1,0,0.1c-0.1,0-0.3,0.1-0.6,0.1c-0.3,0-0.5,0-0.6-0.1
			c0,0,0-0.1,0-0.1c-0.1-0.3-0.2-0.9-0.2-2.1c0-1.3,0.1-1.9,0.2-2.1C522.7,236,522.7,236,522.7,236L522.7,236z"/>
	</g>
	<g>
		<path class="st5" d="M537.5,246.4c-1.5,0-2.7-0.4-3.6-1.2c-0.9-0.8-1.4-2-1.4-3.5v-17.2h6.1l0,16.2c0,0.1,0,0.2,0.1,0.3
			c0.1,0.1,0.3,0.1,0.6,0.1h2l0.7,4.4l-0.7,0.3c-0.3,0.2-0.7,0.3-1.2,0.4c-0.4,0.1-0.9,0.2-1.4,0.2
			C538.3,246.4,537.9,246.4,537.5,246.4z"/>
		<path class="st6" d="M537.6,225.5l0,15.2c0,0.5,0.1,0.8,0.4,1s0.7,0.3,1.2,0.3h1.1l0.5,2.8c-0.2,0.1-0.5,0.2-1,0.3
			c-0.4,0.1-0.8,0.1-1.3,0.2c-0.4,0-0.8,0.1-1.1,0.1c-1.2,0-2.2-0.3-3-1c-0.7-0.7-1.1-1.6-1.1-2.7v-16.2H537.6 M539.6,223.5h-2h-4.1
			h-2v2v16.2c0,2.2,1,3.5,1.8,4.2c1.1,1,2.6,1.5,4.3,1.5c0.4,0,0.8,0,1.3-0.1c0.5-0.1,1-0.1,1.4-0.2c0.6-0.1,1.1-0.3,1.4-0.5
			l1.3-0.7l-0.2-1.5l-0.5-2.8L542,240h-1.7h-0.8l0-14.6L539.6,223.5L539.6,223.5z"/>
	</g>
	<g>
		<path class="st5" d="M549.4,246.4c-1.9,0-3.4-0.3-4.6-0.8c-1.3-0.6-2.2-1.5-2.8-2.8c-0.5-1.2-0.8-2.7-0.8-4.6c0-2,0.3-3.5,0.8-4.7
			c0.6-1.3,1.5-2.2,2.8-2.8c1.2-0.5,2.7-0.8,4.6-0.8c1.9,0,3.4,0.3,4.6,0.8c1.3,0.6,2.2,1.5,2.8,2.8c0.5,1.2,0.8,2.7,0.8,4.7
			c0,1.9-0.3,3.4-0.8,4.6c-0.6,1.3-1.5,2.2-2.8,2.8C552.8,246.2,551.3,246.4,549.4,246.4z M549.4,234.9c-0.7,0-1,0.1-1.2,0.2
			c-0.2,0.1-0.3,0.3-0.4,0.7c-0.1,0.5-0.2,1.3-0.2,2.4c0,1,0.1,1.8,0.2,2.3c0.1,0.3,0.2,0.6,0.4,0.7c0.2,0.1,0.5,0.2,1.2,0.2
			s1-0.1,1.2-0.2c0.2-0.1,0.3-0.3,0.4-0.7c0.1-0.5,0.2-1.3,0.2-2.3c0-1-0.1-1.8-0.2-2.4c-0.1-0.4-0.2-0.6-0.4-0.7
			C550.4,235,550,234.9,549.4,234.9z"/>
		<path class="st6" d="M549.4,230.9c1.7,0,3.1,0.2,4.2,0.7c1,0.5,1.8,1.2,2.3,2.3c0.5,1.1,0.7,2.5,0.7,4.3c0,1.8-0.2,3.2-0.7,4.2
			c-0.5,1.1-1.2,1.8-2.3,2.3c-1,0.5-2.4,0.7-4.2,0.7c-1.7,0-3.1-0.2-4.2-0.7c-1.1-0.5-1.8-1.2-2.3-2.3c-0.5-1.1-0.7-2.5-0.7-4.2
			c0-1.8,0.2-3.2,0.7-4.3c0.5-1.1,1.2-1.8,2.3-2.3C546.3,231.1,547.6,230.9,549.4,230.9 M549.4,242.4c0.7,0,1.3-0.1,1.7-0.3
			c0.4-0.2,0.7-0.7,0.9-1.3s0.3-1.5,0.3-2.6c0-1.1-0.1-2-0.3-2.6c-0.2-0.6-0.5-1-0.9-1.3c-0.4-0.2-1-0.4-1.7-0.4s-1.3,0.1-1.7,0.4
			c-0.4,0.2-0.7,0.7-0.9,1.3c-0.2,0.6-0.3,1.5-0.3,2.6c0,1.1,0.1,2,0.3,2.6s0.5,1,0.9,1.3C548.1,242.3,548.7,242.4,549.4,242.4
			 M549.4,228.9c-2,0-3.7,0.3-5,0.9c-1.5,0.7-2.6,1.8-3.3,3.3c-0.6,1.3-0.9,3-0.9,5.1c0,2.1,0.3,3.7,0.9,5c0.7,1.5,1.8,2.6,3.3,3.3
			c1.3,0.6,2.9,0.9,5,0.9c2,0,3.7-0.3,5-0.9c1.5-0.7,2.6-1.8,3.3-3.3c0.6-1.3,0.8-3,0.8-5c0-2.1-0.3-3.7-0.8-5.1
			c-0.7-1.5-1.8-2.7-3.3-3.3C553,229.2,551.4,228.9,549.4,228.9L549.4,228.9z M548.8,236c0.1,0,0.3-0.1,0.6-0.1c0.3,0,0.5,0,0.6,0.1
			c0,0,0,0.1,0,0.1c0.1,0.2,0.2,0.9,0.2,2.1c0,1.2-0.1,1.8-0.2,2.1c0,0,0,0.1,0,0.1c-0.1,0-0.3,0.1-0.6,0.1c-0.3,0-0.5,0-0.6-0.1
			c0,0,0-0.1,0-0.1c-0.1-0.3-0.2-0.9-0.2-2.1c0-1.3,0.1-1.9,0.2-2.1C548.8,236,548.8,236,548.8,236L548.8,236z"/>
	</g>
	<g>
		<path class="st5" d="M565.8,251.4c-1.5,0-2.8-0.1-3.7-0.2c-1.1-0.2-1.9-0.4-2.6-0.8c-0.7-0.4-1.3-1-1.6-1.7
			c-0.3-0.6-0.4-1.4-0.4-2.3c0-0.7,0.1-1.4,0.4-1.9c0.3-0.6,0.7-1.1,1.3-1.5c-0.1-0.1-0.1-0.2-0.1-0.4c-0.2-0.6-0.3-1.2-0.2-1.9
			c0.1-0.6,0.3-1.2,0.6-1.6c-0.3-0.2-0.5-0.5-0.7-0.8c-0.5-0.8-0.8-1.8-0.8-3.1c0-1.2,0.3-2.3,0.8-3.1c0.6-0.8,1.4-1.5,2.6-1.8
			c1.1-0.3,2.4-0.5,4.2-0.5c1.5,0,2.7,0.1,3.7,0.4h5.5l-0.5,3.7l-1.4,0.2c0.1,0.4,0.1,0.8,0.1,1.2c0,1.2-0.3,2.2-0.8,3
			c-0.5,0.8-1.4,1.5-2.6,1.8c-0.8,0.2-1.7,0.4-2.8,0.5l2.2,0.3c1.7,0.2,3,0.7,3.7,1.6c0.8,0.8,1.1,2,1.1,3.6c0,1.4-0.3,2.5-0.9,3.4
			c-0.6,0.8-1.6,1.4-2.9,1.7C569.1,251.3,567.6,251.4,565.8,251.4z M563.4,246.2c0,0,0.1,0.1,0.4,0.1c0.4,0.1,1.1,0.1,1.9,0.1
			c0.8,0,1.5,0,1.9-0.1c0.3-0.1,0.5-0.1,0.5-0.1c0,0,0-0.1,0-0.3c0-0.1,0-0.1,0-0.1c0,0-0.1,0-0.1,0c-0.3-0.1-0.7-0.2-1.2-0.2
			l-3.1-0.3c-0.1,0.1-0.2,0.2-0.2,0.3c0,0-0.1,0.1-0.1,0.4C563.4,246.1,563.4,246.2,563.4,246.2
			C563.4,246.2,563.4,246.2,563.4,246.2z M565.6,234.4c-1.2,0-1.5,0.2-1.5,0.2c-0.1,0.1-0.2,0.3-0.2,0.6c0,0.2,0,0.5,0.2,0.6
			c0,0,0.4,0.2,1.5,0.2c1.2,0,1.5-0.2,1.5-0.2c0.1-0.1,0.2-0.3,0.2-0.7c0-0.4-0.1-0.6-0.1-0.6C567.1,234.6,566.8,234.4,565.6,234.4z
			"/>
		<path class="st6" d="M565.6,230.9c1.5,0,2.6,0.1,3.5,0.4h4.5l-0.2,1.8l-1.7,0.2c0.2,0.6,0.4,1.2,0.4,2c0,1-0.2,1.9-0.6,2.5
			c-0.4,0.7-1.1,1.1-2.1,1.4c-1,0.3-2.2,0.4-3.9,0.4c-0.9,0-1.7,0-2.5-0.1c-0.1,0.1-0.1,0.2-0.2,0.4c-0.1,0.3-0.1,0.6,0.1,0.9
			c0.2,0.3,0.5,0.4,1,0.5l5.1,0.6c1.5,0.2,2.5,0.5,3.1,1.2c0.6,0.7,0.9,1.6,0.9,2.9c0,1.2-0.2,2.1-0.7,2.8c-0.5,0.7-1.3,1.1-2.3,1.3
			c-1.1,0.2-2.5,0.4-4.3,0.4c-1.4,0-2.6-0.1-3.6-0.2c-0.9-0.1-1.7-0.4-2.2-0.7c-0.5-0.3-0.9-0.7-1.1-1.2c-0.2-0.5-0.3-1.1-0.3-1.9
			c0-0.6,0.1-1.1,0.3-1.5c0.2-0.4,0.6-0.8,1.1-1.1c0.2-0.2,0.5-0.3,0.8-0.5c-0.3-0.3-0.5-0.6-0.7-1c-0.2-0.5-0.2-0.9-0.1-1.4
			c0.1-0.5,0.2-0.9,0.5-1.3c0.2-0.3,0.4-0.5,0.7-0.7c-0.6-0.3-1.1-0.7-1.4-1.2c-0.4-0.6-0.6-1.5-0.6-2.5c0-1,0.2-1.9,0.6-2.5
			c0.4-0.6,1.1-1.1,2.1-1.4C562.7,231,564,230.9,565.6,230.9 M565.6,237.1c1,0,1.7-0.1,2.1-0.4c0.4-0.3,0.6-0.8,0.6-1.5
			s-0.2-1.2-0.6-1.4c-0.4-0.3-1.1-0.4-2.1-0.4c-1,0-1.7,0.1-2.1,0.4c-0.4,0.3-0.6,0.8-0.6,1.4s0.2,1.2,0.6,1.5
			C563.9,237,564.6,237.1,565.6,237.1 M565.7,247.4c0.9,0,1.6,0,2.1-0.1c0.5-0.1,0.8-0.2,1-0.5c0.2-0.2,0.3-0.5,0.3-0.9
			c0-0.4-0.1-0.6-0.2-0.8c-0.1-0.2-0.4-0.3-0.7-0.4c-0.3-0.1-0.8-0.2-1.4-0.2l-3.5-0.4c-0.1,0-0.1,0.1-0.2,0.2
			c-0.3,0.2-0.5,0.5-0.6,0.7c-0.1,0.2-0.2,0.5-0.2,0.9c0,0.4,0.1,0.8,0.3,1c0.2,0.2,0.5,0.4,1,0.5
			C564.2,247.4,564.9,247.4,565.7,247.4 M565.6,228.9c-1.8,0-3.3,0.2-4.5,0.5c-1.4,0.4-2.5,1.2-3.2,2.2c-0.6,1-1,2.2-1,3.6
			c0,1.4,0.3,2.6,1,3.6c0.1,0.1,0.2,0.3,0.3,0.4c-0.2,0.4-0.3,0.8-0.4,1.3c-0.1,0.7-0.1,1.4,0.1,2.1c-0.4,0.4-0.8,0.9-1,1.3
			c-0.4,0.7-0.5,1.5-0.5,2.4c0,1,0.2,1.9,0.5,2.7c0.4,0.9,1,1.6,2,2.2c0.8,0.5,1.7,0.8,3,0.9c1.1,0.2,2.3,0.2,3.9,0.2
			c1.9,0,3.5-0.1,4.7-0.4c1.6-0.4,2.7-1.1,3.5-2.1c0.7-1,1.1-2.3,1.1-3.9c0-1.8-0.5-3.2-1.4-4.2c-0.5-0.6-1.2-1-2-1.3
			c0.7-0.4,1.2-0.9,1.6-1.5c0.6-1,0.9-2.2,0.9-3.6c0-0.1,0-0.2,0-0.3l1.2-0.1l0.2-1.5l0.2-1.8l0.3-2.2h-2.3h-4.3
			C568.4,229,567.2,228.9,565.6,228.9L565.6,228.9z"/>
	</g>
	<g>
		<path class="st5" d="M578.4,251.8c-0.4,0-0.8,0-1.3-0.1l-0.8-0.1l-0.5-4l0.9-0.2c1-0.2,1.8-0.6,2.3-1c0.2-0.1,0.3-0.3,0.5-0.5
			c-0.2-0.1-0.4-0.2-0.6-0.3c-0.4-0.3-0.7-0.7-0.8-1.2l-5-14.1h6.6l2.5,8.7l2.5-8.7h6.6l-5.4,15.3c-0.2,0.7-0.6,1.5-1,2.2
			c-0.4,0.8-1,1.5-1.7,2.1c-0.7,0.7-1.6,1.2-2.5,1.5C579.9,251.7,579.2,251.8,578.4,251.8z"/>
		<path class="st6" d="M589.8,231.2l-5,14c-0.2,0.7-0.5,1.4-0.9,2.1c-0.4,0.7-0.9,1.3-1.5,1.9c-0.6,0.6-1.3,1-2.2,1.3
			c-0.6,0.2-1.2,0.3-1.9,0.3c-0.4,0-0.7,0-1.1-0.1l-0.3-2.4c1.1-0.3,2-0.7,2.7-1.2c0.6-0.5,1.1-1.2,1.5-2l0-0.1h-0.8
			c-0.3,0-0.6-0.1-0.8-0.3s-0.4-0.4-0.5-0.7l-4.6-12.8h4.4l2.6,9c0.1,0.3,0.2,0.7,0.2,1.1c0.1,0.4,0.1,0.7,0.2,1.1h0.4
			c0.1-0.2,0.1-0.4,0.2-0.6c0.2-0.6,0.3-1.1,0.4-1.5l2.6-9H589.8 M592.7,229.2h-2.8h-4.4h-1.5l-0.4,1.4l-1.3,4.7l-1.4-4.7l-0.4-1.4
			h-1.5h-4.4h-2.8l1,2.7l4.6,12.8c0.1,0.5,0.4,0.9,0.7,1.2c-0.3,0.2-0.8,0.3-1.4,0.5l-1.7,0.4l0.2,1.8l0.3,2.4l0.2,1.5l1.5,0.2
			c0.5,0.1,0.9,0.1,1.4,0.1c0.9,0,1.8-0.1,2.5-0.4c1.1-0.4,2.1-0.9,2.9-1.7c0.8-0.7,1.4-1.5,1.9-2.4c0.5-0.8,0.8-1.6,1.1-2.4l4.9-14
			L592.7,229.2L592.7,229.2z"/>
	</g>
	<g>
		<path class="st5" d="M605.4,246.4c-1.5,0-2.9,0-4.1-0.1c-1.2,0-2.4-0.1-3.5-0.2l-0.9-0.1v-21.2l0.9-0.1c1.1-0.1,2.3-0.1,3.5-0.2
			c1.3-0.1,2.7-0.1,4.1-0.1c1.6,0,3,0.2,4.2,0.5c1.2,0.4,2.3,1,3,1.9c0.7,0.9,1.3,2,1.6,3.5c0.3,1.3,0.5,3,0.5,5c0,2-0.2,3.7-0.5,5
			c-0.3,1.4-0.9,2.6-1.6,3.5c-0.8,0.9-1.8,1.5-3,1.9C608.4,246.2,607,246.4,605.4,246.4z M603.1,241c0.7,0,1.5,0,2.3,0
			c0.7,0,1.3-0.1,1.7-0.4c0.3-0.2,0.6-0.7,0.8-1.4c0.2-0.9,0.3-2.1,0.3-3.8c0-1.7-0.1-2.9-0.3-3.8c-0.2-0.7-0.4-1.2-0.8-1.5
			c-0.4-0.3-0.9-0.4-1.7-0.4c-0.8,0-1.6,0-2.3,0V241z"/>
		<path class="st6" d="M605.4,225.5c1.5,0,2.8,0.2,3.9,0.5c1.1,0.3,1.9,0.9,2.5,1.6s1.1,1.8,1.4,3c0.3,1.3,0.4,2.9,0.4,4.8
			s-0.1,3.5-0.4,4.8c-0.3,1.3-0.8,2.3-1.4,3s-1.5,1.3-2.5,1.6c-1,0.3-2.3,0.5-3.9,0.5c-1.5,0-2.8,0-4.1-0.1
			c-1.2-0.1-2.4-0.1-3.5-0.2v-19.3c1.1-0.1,2.3-0.1,3.5-0.2C602.5,225.5,603.9,225.5,605.4,225.5 M602.1,242L602.1,242
			c1,0,2.1,0,3.3,0c1,0,1.7-0.2,2.3-0.6s0.9-1.1,1.2-2c0.2-1,0.4-2.3,0.4-4c0-1.7-0.1-3.1-0.4-4c-0.2-1-0.6-1.7-1.2-2.1
			c-0.5-0.4-1.3-0.6-2.3-0.6c-1.1,0-2.2,0-3,0h-0.2V242 M605.4,223.5c-1.4,0-2.8,0-4.2,0.1c-1.2,0.1-2.4,0.1-3.6,0.2l-1.9,0.1v1.9
			v19.3v1.9l1.9,0.1c1.1,0.1,2.3,0.1,3.6,0.2c1.3,0.1,2.6,0.1,4.1,0.1c1.7,0,3.2-0.2,4.5-0.6c1.4-0.4,2.6-1.2,3.5-2.2
			c0.8-1,1.5-2.3,1.8-3.9c0.3-1.4,0.5-3.2,0.5-5.3c0-2.1-0.2-3.8-0.5-5.3c-0.4-1.6-1-2.9-1.8-3.9c-0.9-1-2-1.8-3.5-2.2
			C608.6,223.7,607.1,223.5,605.4,223.5L605.4,223.5z M604.1,230.7c0.4,0,0.8,0,1.3,0c0.7,0,1,0.2,1.1,0.2c0,0,0.2,0.2,0.4,0.9
			c0.2,0.8,0.3,2,0.3,3.6s-0.1,2.8-0.3,3.5c-0.1,0.6-0.3,0.8-0.4,0.9c-0.1,0.1-0.4,0.2-1.1,0.2c-0.5,0-0.9,0-1.3,0V230.7
			L604.1,230.7z"/>
	</g>
	<g>
		<path class="st5" d="M620.6,246.4c-1,0-1.9-0.2-2.7-0.5c-0.9-0.4-1.5-0.9-2-1.7c-0.5-0.8-0.8-1.7-0.8-2.7v-1.4
			c0-1.4,0.5-2.5,1.5-3.3c0.9-0.8,2.2-1.2,3.7-1.2h4c0-0.2-0.1-0.3-0.1-0.4c0,0,0,0,0,0c0,0-0.2-0.2-1.1-0.2c-0.7,0-1.6,0-2.6,0.1
			c-1.1,0-2.1,0.1-3.2,0.2l-0.9,0.1l-0.7-4.6l0.9-0.2c0.7-0.1,1.5-0.3,2.4-0.3c0.9-0.1,1.8-0.2,2.7-0.2c1.1-0.1,1.8-0.1,2.4-0.1
			c1.3,0,2.4,0.2,3.3,0.5c1,0.4,1.8,1.1,2.4,2c0.5,0.9,0.8,2.1,0.8,3.5v10.1h-5.1l-0.2-1.2c-0.5,0.4-1.2,0.8-1.9,1.1
			C622.5,246.2,621.6,246.4,620.6,246.4z M621.3,240c0,0,0,0.1,0,0.3v0.7c0,0.2,0,0.3,0.1,0.4c0,0,0.1,0.1,0.6,0.1
			c0.4,0,0.8-0.1,1.2-0.2c0.4-0.1,0.8-0.4,1.2-0.6v-0.6l-2.7,0C621.4,239.9,621.3,240,621.3,240z"/>
		<path class="st6" d="M624.1,230.9c1.2,0,2.1,0.2,2.9,0.5c0.8,0.3,1.4,0.8,1.8,1.6c0.4,0.7,0.6,1.8,0.6,3v9.1h-3.3l-0.4-2.2
			c-0.3,0.4-0.7,0.7-1.1,1.1c-0.5,0.4-1.1,0.7-1.8,1c-0.7,0.3-1.4,0.4-2.3,0.4c-0.8,0-1.6-0.1-2.3-0.4c-0.7-0.3-1.2-0.7-1.6-1.3
			c-0.4-0.6-0.6-1.3-0.6-2.2v-1.4c0-1.1,0.4-2,1.1-2.6c0.8-0.6,1.8-0.9,3.1-0.9h5v-0.7c0-0.6-0.2-1.1-0.5-1.4
			c-0.3-0.3-0.9-0.4-1.8-0.4c-0.7,0-1.6,0-2.7,0.1c-1.1,0-2.2,0.1-3.3,0.2l-0.4-2.8c0.7-0.1,1.4-0.2,2.3-0.3
			c0.9-0.1,1.8-0.2,2.6-0.2C622.7,230.9,623.4,230.9,624.1,230.9 M621.9,242.4c0.5,0,1-0.1,1.6-0.3c0.6-0.2,1.1-0.5,1.7-0.9
			c0.1-0.1,0.1-0.1,0.2-0.1v-2.2l-3.7,0c-0.5,0-0.9,0.1-1.1,0.4c-0.2,0.2-0.3,0.6-0.3,1v0.7c0,0.5,0.1,0.8,0.4,1.1
			S621.3,242.4,621.9,242.4 M624.1,228.9c-0.7,0-1.4,0-2.5,0.1c-0.9,0.1-1.8,0.2-2.7,0.2c-0.9,0.1-1.8,0.2-2.5,0.4l-1.9,0.4l0.3,1.9
			l0.4,2.8l0.3,1.8c-0.9,1-1.4,2.2-1.4,3.6v1.4c0,1.3,0.3,2.4,0.9,3.3c0.6,0.9,1.4,1.6,2.5,2c0.9,0.4,2,0.6,3.1,0.6
			c1.1,0,2.1-0.2,3.1-0.6c0.3-0.1,0.5-0.2,0.8-0.4l0.1,0.6h1.6h3.3h2v-2v-9.1c0-1.7-0.3-3-0.9-4c-0.7-1.2-1.6-2-2.9-2.5
			C626.7,229.1,625.5,228.9,624.1,228.9L624.1,228.9z"/>
	</g>
	<g>
		<path class="st5" d="M638.2,246.4c-1.5,0-2.7-0.4-3.6-1.3c-0.9-0.9-1.4-2.1-1.4-3.6l0-6.6h-2.4v-4.5l2.4-0.1l0-3.9h6.2v3.8h3.9
			v4.7h-3.9v5.7c0,0.2,0,0.3,0,0.4c0,0,0,0,0,0c0,0,0.2,0,0.5,0h2.6l0.7,4.5l-0.8,0.3c-0.4,0.2-0.9,0.3-1.4,0.3
			c-0.5,0.1-1,0.2-1.6,0.2C639,246.4,638.6,246.4,638.2,246.4z"/>
		<path class="st6" d="M638.4,227.4v3.8h3.9v2.7h-3.9v6.7c0,0.5,0.1,0.9,0.4,1.1c0.2,0.2,0.6,0.3,1.2,0.3h1.8l0.5,2.8
			c-0.3,0.1-0.8,0.2-1.2,0.3c-0.5,0.1-1,0.2-1.5,0.2c-0.5,0.1-0.9,0.1-1.2,0.1c-1.2,0-2.2-0.3-2.9-1c-0.7-0.7-1-1.6-1-2.8l0-7.6
			h-2.4v-2.6l2.4-0.1l0-3.9H638.4 M640.4,225.4h-2h-4.2h-2l0,2l0,2l-0.5,0l-1.9,0.1v1.9v2.6v2h2h0.4l0,5.6c0,1.8,0.6,3.2,1.7,4.3
			c1.1,1,2.5,1.6,4.3,1.6c0.4,0,0.9,0,1.4-0.1c0.6,0,1.1-0.1,1.6-0.2c0.5-0.1,1.1-0.2,1.6-0.4l1.6-0.6l-0.3-1.6l-0.5-2.8l-0.3-1.7
			h-1.7h-1.3V236h1.9h2v-2v-2.7v-2h-2h-1.9v-1.8V225.4L640.4,225.4z"/>
	</g>
	<g>
		<path class="st5" d="M648.4,246.4c-1,0-1.9-0.2-2.7-0.5c-0.9-0.4-1.5-0.9-2-1.7c-0.5-0.7-0.8-1.6-0.8-2.7v-1.4
			c0-1.4,0.5-2.5,1.5-3.4c0.9-0.8,2.2-1.1,3.7-1.1h4c0-0.2-0.1-0.3-0.1-0.4l0,0c0,0-0.2-0.2-1.1-0.2c-0.7,0-1.6,0-2.6,0.1
			c-1.1,0-2.1,0.1-3.3,0.2l-0.9,0.1l-0.7-4.6l0.9-0.2c0.7-0.1,1.5-0.2,2.4-0.3c0.9-0.1,1.8-0.2,2.7-0.2c1-0.1,1.8-0.1,2.4-0.1
			c1.3,0,2.4,0.2,3.3,0.5c1,0.4,1.8,1.1,2.3,2c0.5,0.9,0.8,2.1,0.8,3.5v10.1h-5.1l-0.2-1.2c-0.5,0.4-1.2,0.8-1.9,1.1
			C650.2,246.2,649.4,246.4,648.4,246.4z M649.4,239.9c-0.3,0-0.4,0-0.4,0c0,0,0,0.1,0,0.3v0.7c0,0.2,0,0.3,0.1,0.4
			c0,0,0.1,0.1,0.6,0.1c0.4,0,0.8-0.1,1.2-0.2c0.4-0.1,0.8-0.3,1.2-0.6v-0.6L649.4,239.9z"/>
		<path class="st6" d="M651.9,230.9c1.2,0,2.1,0.2,2.9,0.5c0.8,0.3,1.4,0.8,1.8,1.6c0.4,0.7,0.6,1.8,0.6,3v9.1H654l-0.4-2.2
			c-0.3,0.4-0.7,0.7-1.1,1.1c-0.5,0.4-1.1,0.7-1.8,1c-0.7,0.3-1.4,0.4-2.3,0.4c-0.8,0-1.6-0.1-2.3-0.4c-0.7-0.3-1.2-0.7-1.6-1.3
			c-0.4-0.6-0.6-1.3-0.6-2.2v-1.4c0-1.1,0.4-2,1.1-2.6c0.7-0.6,1.8-0.9,3.1-0.9h5v-0.7c0-0.6-0.2-1.1-0.5-1.4
			c-0.3-0.3-0.9-0.4-1.8-0.4c-0.7,0-1.6,0-2.7,0.1c-1.1,0-2.2,0.1-3.3,0.2l-0.4-2.8c0.7-0.1,1.5-0.2,2.3-0.3
			c0.9-0.1,1.8-0.2,2.6-0.2C650.4,230.9,651.2,230.9,651.9,230.9 M649.7,242.4c0.5,0,1-0.1,1.6-0.3c0.6-0.2,1.1-0.5,1.7-0.9
			c0.1,0,0.1-0.1,0.2-0.1v-2.2l-3.7,0c-0.5,0-0.9,0.1-1.1,0.4c-0.2,0.2-0.3,0.6-0.3,1v0.7c0,0.5,0.1,0.8,0.4,1.1
			C648.7,242.3,649.1,242.4,649.7,242.4 M651.9,228.9c-0.7,0-1.5,0-2.5,0.1c-0.9,0.1-1.8,0.2-2.7,0.2c-0.9,0.1-1.8,0.2-2.5,0.4
			l-1.9,0.4l0.3,1.9l0.4,2.8l0.3,1.8c-0.9,1-1.3,2.2-1.3,3.6v1.4c0,1.3,0.3,2.4,0.9,3.3c0.6,0.9,1.4,1.6,2.4,2c1,0.4,2,0.6,3.1,0.6
			c1.1,0,2.1-0.2,3.1-0.6c0.3-0.1,0.5-0.2,0.8-0.4l0.1,0.6h1.6h3.3h2v-2v-9.1c0-1.7-0.3-3-0.9-4c-0.7-1.1-1.6-2-2.8-2.4
			C654.5,229.1,653.3,228.9,651.9,228.9L651.9,228.9z"/>
	</g>
	<g>
		<path class="st5" d="M667.8,246.4c-0.6,0-1.1,0-1.8-0.1c-0.6,0-1.3-0.1-2-0.2c-0.7-0.1-1.4-0.2-2-0.4c-0.7-0.2-1.2-0.3-1.7-0.5
			l-0.6-0.3v-20.5h6.1l0,5.5c0,0.3,0,0.6,0,0.9c0.4-0.2,0.8-0.4,1.3-0.6c0.8-0.3,1.5-0.4,2.3-0.4c2.2,0,3.8,0.7,4.7,2.1
			c0.9,1.3,1.4,3.3,1.4,6.1c0,1.1-0.1,2.2-0.3,3.1c-0.2,1-0.6,2-1.2,2.7c-0.6,0.8-1.4,1.4-2.5,1.9
			C670.5,246.2,669.3,246.4,667.8,246.4z M665.8,241.3c0.3,0,0.5,0.1,0.7,0.1c0.3,0,0.5,0,0.8,0c0.1,0,0.2,0,0.3,0
			c0.5,0,0.8-0.1,1-0.2c0.2-0.1,0.3-0.4,0.4-0.7c0.2-0.6,0.2-1.4,0.2-2.4c0-0.9-0.1-1.7-0.2-2.2c-0.1-0.3-0.2-0.5-0.3-0.6
			c-0.1-0.1-0.4-0.2-1-0.2c-0.5,0-0.9,0.1-1.2,0.3c-0.2,0.1-0.5,0.3-0.7,0.4L665.8,241.3z"/>
		<path class="st6" d="M664.8,225.5l0,4.5c0,0.6,0,1.2-0.1,1.8c-0.1,0.5-0.1,1-0.3,1.4c0.4-0.4,0.8-0.7,1.2-1c0.6-0.4,1.2-0.7,1.8-1
			c0.6-0.2,1.3-0.3,2-0.3c1.8,0,3.1,0.6,3.9,1.7s1.2,2.9,1.2,5.5c0,1.1-0.1,2-0.3,2.9c-0.2,0.9-0.6,1.7-1,2.3
			c-0.5,0.7-1.2,1.2-2.1,1.5c-0.9,0.4-2,0.5-3.4,0.5c-0.5,0-1,0-1.7-0.1c-0.6,0-1.3-0.1-2-0.2c-0.7-0.1-1.3-0.2-1.9-0.3
			s-1.1-0.3-1.5-0.5v-18.8H664.8 M667.3,242.4c0.1,0,0.3,0,0.4,0c0.6,0,1.2-0.2,1.5-0.4s0.7-0.7,0.8-1.3c0.2-0.6,0.3-1.5,0.3-2.6
			c0-1-0.1-1.8-0.2-2.4c-0.1-0.6-0.4-1-0.8-1.2c-0.4-0.2-0.9-0.3-1.5-0.3c-0.6,0-1.2,0.1-1.7,0.4c-0.4,0.2-0.8,0.5-1.3,0.8l0,6.9
			c0.1,0,0.2,0.1,0.3,0.1c0.4,0.1,0.9,0.1,1.3,0.2C666.8,242.4,667,242.4,667.3,242.4 M666.8,223.5h-2h-4.1h-2v2v18.8v1.3l1.2,0.5
			c0.5,0.2,1.2,0.4,1.9,0.6c0.6,0.1,1.3,0.3,2.1,0.4c0.6,0.1,1.3,0.2,2.1,0.2c0.6,0,1.2,0.1,1.8,0.1c1.7,0,3-0.2,4.2-0.7
			c1.2-0.5,2.2-1.3,2.9-2.2c0.7-0.9,1.1-1.9,1.4-3.1c0.2-1.1,0.3-2.2,0.3-3.4c0-3-0.5-5.2-1.6-6.7c-0.8-1.1-2.4-2.5-5.6-2.5
			c-0.9,0-1.7,0.1-2.6,0.4l0-3.9L666.8,223.5L666.8,223.5z M666.8,236.4c0.1,0,0.1-0.1,0.2-0.1c0.2-0.1,0.5-0.2,0.8-0.2
			c0.2,0,0.3,0,0.3,0c0,0,0,0,0,0c0.1,0.3,0.2,0.8,0.2,1.9c0,1.2-0.1,1.8-0.2,2.1c0,0.1,0,0.1-0.1,0.2c-0.1,0-0.2,0-0.4,0.1l0,0l0,0
			c-0.1,0-0.2,0-0.3,0c-0.1,0-0.3,0-0.5,0L666.8,236.4L666.8,236.4z"/>
	</g>
	<g>
		<path class="st5" d="M681.3,246.4c-1,0-1.9-0.2-2.7-0.5c-0.8-0.4-1.5-0.9-2-1.7c-0.5-0.7-0.8-1.7-0.8-2.7v-1.4
			c0-1.4,0.5-2.5,1.5-3.4c0.9-0.8,2.2-1.1,3.7-1.1h4c0-0.2-0.1-0.3-0.1-0.4c0,0,0,0,0,0c0,0-0.3-0.1-1-0.1c-0.7,0-1.6,0-2.6,0.1
			c-1.1,0-2.1,0.1-3.3,0.2l-0.9,0.1l-0.7-4.6l0.9-0.2c0.7-0.1,1.5-0.3,2.4-0.3c0.9-0.1,1.8-0.2,2.7-0.2c1.1-0.1,1.8-0.1,2.4-0.1
			c1.2,0,2.4,0.2,3.3,0.5c1,0.4,1.8,1.1,2.4,2c0.5,0.9,0.8,2.1,0.8,3.5v10.1h-5.1l-0.2-1.2c-0.6,0.4-1.2,0.8-1.9,1.1
			C683.2,246.2,682.3,246.4,681.3,246.4z M682,240c0,0,0,0.1,0,0.3v0.7c0,0.1,0,0.3,0.1,0.4c0,0,0.2,0.1,0.6,0.1
			c0.4,0,0.8-0.1,1.2-0.2c0.4-0.1,0.8-0.3,1.2-0.6v-0.6l-2.7,0C682.1,239.9,682,240,682,240L682,240z"/>
		<path class="st6" d="M684.8,230.9c1.2,0,2.1,0.2,2.9,0.5c0.8,0.3,1.4,0.8,1.8,1.6c0.4,0.7,0.6,1.8,0.6,3v9.1h-3.3l-0.4-2.2
			c-0.3,0.4-0.7,0.7-1.1,1.1c-0.5,0.4-1.1,0.7-1.8,1c-0.7,0.3-1.4,0.4-2.3,0.4c-0.8,0-1.6-0.1-2.3-0.4c-0.7-0.3-1.2-0.7-1.6-1.3
			c-0.4-0.6-0.6-1.3-0.6-2.2v-1.4c0-1.1,0.4-2,1.1-2.6c0.7-0.6,1.8-0.9,3.1-0.9h5v-0.7c0-0.6-0.2-1.1-0.5-1.4
			c-0.3-0.3-0.9-0.4-1.8-0.4c-0.7,0-1.6,0-2.7,0.1c-1.1,0-2.2,0.1-3.3,0.2l-0.4-2.8c0.7-0.1,1.4-0.2,2.3-0.3
			c0.9-0.1,1.8-0.2,2.6-0.2C683.4,230.9,684.1,230.9,684.8,230.9 M682.6,242.4c0.5,0,1-0.1,1.6-0.3c0.6-0.2,1.1-0.5,1.7-0.9
			c0.1-0.1,0.1-0.1,0.2-0.1v-2.2l-3.7,0c-0.5,0-0.9,0.1-1.1,0.4c-0.2,0.2-0.3,0.6-0.3,1v0.7c0,0.5,0.1,0.8,0.4,1.1
			C681.6,242.3,682,242.4,682.6,242.4 M684.8,228.9c-0.7,0-1.4,0-2.5,0.1c-0.9,0.1-1.8,0.2-2.7,0.2c-0.9,0.1-1.8,0.2-2.5,0.4
			l-1.9,0.4l0.3,1.9l0.4,2.8l0.3,1.8c-0.9,1-1.3,2.2-1.3,3.6v1.4c0,1.3,0.3,2.4,0.9,3.3c0.6,0.9,1.4,1.6,2.4,2
			c0.9,0.4,2,0.6,3.1,0.6c1.1,0,2.1-0.2,3.1-0.6c0.3-0.1,0.5-0.2,0.8-0.4l0.1,0.6h1.6h3.3h2v-2v-9.1c0-1.7-0.3-3-0.9-4
			c-0.7-1.1-1.6-2-2.8-2.4C687.4,229.1,686.2,228.9,684.8,228.9L684.8,228.9z"/>
	</g>
	<g>
		<path class="st5" d="M699.6,246.4c-0.6,0-1.5,0-2.6-0.1c-1.2-0.1-2.5-0.2-3.9-0.4l-0.9-0.2l0.5-4.5l0.9,0.1c0.3,0,0.7,0,1.2,0
			c0.5,0,1.1,0,1.7,0h1.8c0.9,0,1.6,0,2.1-0.1c0.2,0,0.3,0,0.4-0.1c-0.2-0.1-0.6-0.2-1.2-0.4l-3.5-0.9c-1-0.3-1.8-0.6-2.4-1.1
			c-0.6-0.5-1.1-1.1-1.4-1.8c-0.2-0.6-0.4-1.4-0.4-2.3c0-1.1,0.2-2.1,0.7-2.8c0.5-0.8,1.3-1.3,2.4-1.6c1-0.3,2.2-0.4,3.7-0.4
			c0.7,0,1.4,0,2.2,0.1c0.8,0,1.6,0.1,2.3,0.2c0.8,0.1,1.5,0.2,2.1,0.3l0.9,0.2L706,235l-0.9,0c-0.9,0-1.8,0-2.7,0
			c-0.9,0-1.8,0-2.6,0c-0.3,0-0.5,0-0.7,0c-0.4,0-0.7,0-0.9,0c0,0-0.1,0-0.1,0c0.2,0.1,0.5,0.2,1,0.3l3.6,0.9
			c1.4,0.3,2.4,0.9,3.1,1.6c0.7,0.8,1.1,1.9,1.1,3.3c0,1.4-0.3,2.4-0.8,3.2c-0.6,0.8-1.5,1.4-2.6,1.7
			C702.4,246.3,701.1,246.4,699.6,246.4z"/>
		<path class="st6" d="M698.9,230.9c0.7,0,1.4,0,2.2,0.1s1.5,0.1,2.3,0.2c0.7,0.1,1.4,0.2,2,0.3l-0.3,2.6c-0.9,0-1.8,0-2.7,0
			s-1.8,0-2.6,0c-0.2,0-0.5,0-0.7,0c-0.4,0-0.7,0-1,0c-0.4,0-0.7,0.1-0.8,0.3c-0.2,0.1-0.2,0.4-0.2,0.7c0,0.4,0.1,0.7,0.4,0.8
			c0.3,0.1,0.7,0.3,1.4,0.5l3.6,0.9c1.2,0.3,2,0.7,2.6,1.3c0.6,0.6,0.8,1.5,0.8,2.6c0,1.2-0.2,2-0.6,2.7c-0.4,0.6-1.1,1-2,1.3
			c-0.9,0.2-2.1,0.3-3.6,0.3c-0.6,0-1.4,0-2.6-0.1c-1.1-0.1-2.4-0.2-3.8-0.4l0.3-2.6c0.3,0,0.8,0,1.3,0c0.5,0,1.1,0,1.7,0
			s1.2,0,1.8,0c1,0,1.7,0,2.2-0.1c0.5,0,0.8-0.2,1-0.3s0.3-0.4,0.3-0.8c0-0.4-0.2-0.7-0.5-0.8s-0.8-0.3-1.5-0.5l-3.5-0.9
			c-0.9-0.2-1.6-0.6-2-0.9s-0.8-0.8-1-1.4s-0.3-1.2-0.3-1.9c0-1,0.2-1.7,0.6-2.3c0.4-0.6,1-1,1.9-1.2
			C696.3,231,697.5,230.9,698.9,230.9 M698.9,228.9c-1.7,0-3,0.2-4,0.5c-1.3,0.4-2.3,1.1-3,2c-0.6,0.9-0.9,2-0.9,3.4
			c0,1,0.1,1.9,0.4,2.6c0.3,0.9,0.9,1.7,1.7,2.3c0.3,0.2,0.7,0.4,1,0.6c-0.2,0-0.4,0-0.5,0l-1.9-0.1l-0.2,1.9l-0.3,2.6l-0.2,1.9
			l1.9,0.3c1.4,0.2,2.8,0.4,4,0.4c1.2,0.1,2.1,0.1,2.7,0.1c1.7,0,3-0.1,4.1-0.4c1.4-0.4,2.5-1,3.2-2.1c0.7-1,1-2.2,1-3.8
			c0-1.7-0.5-3.1-1.4-4c-0.4-0.4-0.9-0.8-1.4-1.1c0,0,0,0,0,0l1.8,0l0.2-1.8l0.3-2.6l0.2-1.8l-1.8-0.4c-0.6-0.1-1.3-0.2-2.2-0.3
			c-0.8-0.1-1.6-0.1-2.4-0.2C700.4,228.9,699.6,228.9,698.9,228.9L698.9,228.9z"/>
	</g>
	<g>
		<path class="st5" d="M715.4,246.4c-1.9,0-3.5-0.3-4.7-0.9c-1.3-0.6-2.2-1.6-2.8-2.9c-0.5-1.2-0.8-2.7-0.8-4.5
			c0-1.9,0.3-3.5,0.8-4.7c0.6-1.3,1.5-2.2,2.8-2.8c1.2-0.5,2.7-0.8,4.5-0.8c2.6,0,4.4,0.5,5.6,1.4c1.3,1,1.9,2.5,1.9,4.3
			c0,1.6-0.4,2.8-1.3,3.6c-0.8,0.8-2.2,1.2-4.1,1.2h-3.7c0.1,0.3,0.3,0.4,0.4,0.5c0.4,0.2,0.9,0.3,1.6,0.3c0.6,0,1.4,0,2.3-0.1
			c0.9,0,1.9-0.1,2.8-0.2l1-0.1l0.6,4.2l-0.7,0.3c-0.6,0.3-1.3,0.5-2.1,0.7c-0.7,0.2-1.5,0.3-2.2,0.3
			C716.8,246.4,716.1,246.4,715.4,246.4z M716.3,236.1c0.2,0,0.3,0,0.4,0c0-0.1,0.1-0.2,0.1-0.5c0-0.4-0.1-0.5-0.1-0.5
			c-0.1,0-0.4-0.2-1.3-0.2c-0.8,0-1.2,0.1-1.4,0.2c-0.1,0-0.2,0.1-0.3,0.5c0,0.1-0.1,0.3-0.1,0.5H716.3z"/>
		<path class="st6" d="M715.2,230.9c2.3,0,4,0.4,5,1.2c1,0.8,1.5,2,1.5,3.5c0,1.3-0.3,2.2-1,2.9c-0.6,0.6-1.8,0.9-3.4,0.9h-4.9
			c0.1,0.4,0.1,0.8,0.2,1.1c0.2,0.6,0.6,1.1,1,1.3c0.5,0.2,1.2,0.4,2.1,0.4c0.6,0,1.4,0,2.4-0.1c0.9,0,1.9-0.1,2.8-0.2l0.4,2.5
			c-0.5,0.3-1.2,0.5-1.9,0.6c-0.7,0.2-1.4,0.3-2.1,0.3c-0.7,0.1-1.4,0.1-2.1,0.1c-1.8,0-3.2-0.2-4.2-0.8c-1.1-0.5-1.9-1.3-2.3-2.4
			c-0.5-1.1-0.7-2.4-0.7-4.1c0-1.8,0.2-3.2,0.7-4.3c0.5-1.1,1.2-1.8,2.3-2.3C712.2,231.1,713.5,230.9,715.2,230.9 M712.5,237.1h3.8
			c0.6,0,1-0.1,1.2-0.4c0.2-0.3,0.3-0.6,0.3-1.1c0-0.6-0.2-1.1-0.6-1.4c-0.4-0.2-1-0.4-1.8-0.4c-0.8,0-1.4,0.1-1.8,0.3
			c-0.4,0.2-0.7,0.6-0.9,1.2C712.6,235.7,712.5,236.3,712.5,237.1 M715.2,228.9c-2,0-3.6,0.3-4.9,0.9c-1.5,0.7-2.6,1.8-3.3,3.3
			c-0.6,1.3-0.9,3.1-0.9,5.1c0,2,0.3,3.6,0.9,4.9c0.7,1.5,1.8,2.6,3.3,3.3c1.3,0.6,3,1,5.1,1c0.7,0,1.5,0,2.3-0.1
			c0.8-0.1,1.6-0.2,2.4-0.4c0.8-0.2,1.6-0.4,2.3-0.8l1.3-0.6l-0.2-1.5l-0.4-2.5l-0.3-1.9l-0.3,0c0.9-1,1.3-2.4,1.3-4.1
			c0-2.7-1.2-4.3-2.3-5.1C720.1,229.4,718,228.9,715.2,228.9L715.2,228.9z"/>
	</g>
</g>
</svg>
