<?xml version="1.0" encoding="UTF-8"?>
<svg id="Layer_1" data-name="Layer 1" xmlns="http://www.w3.org/2000/svg" viewBox="0 0 365 1080">
  <defs>
    <style>
      .cls-1 {
        stroke: #4d4d4d;
      }

      .cls-1, .cls-2, .cls-3, .cls-4 {
        fill: none;
        opacity: .1;
        stroke-miterlimit: 10;
        stroke-width: 2px;
      }

      .cls-2 {
        stroke: gray;
      }

      .cls-3 {
        stroke: #ccc;
      }

      .cls-4 {
        stroke: #999;
      }
    </style>
  </defs>
  <path class="cls-1" d="M282.87,889.33c-35.8,13.57-60.44,45.8-85.35,74.87-28.01,32.71-58.67,63.15-91.57,90.93-22.16,18.71-46.45,37.74-55.98,65.14-1.11,3.18-1.98,6.76-.62,9.85,1.3,2.95,4.31,4.7,7.14,6.26,20.9,11.51,41.81,23.02,62.71,34.53,10.81,5.96,22.09,12.05,34.41,12.8,11.98,.73,23.63-3.67,34.7-8.31,34.42-14.41,68.59-32.06,105.8-34.81,23.25-1.72,47.54,2.39,69.32-5.95,14.03-5.37,25.66-15.44,36.97-25.32,13.45-11.75,27.45-24.3,33.19-41.21,4.81-14.17,3.17-29.62,1.25-44.46-3.67-28.3-8.18-56.51-13.97-84.46-4.75-22.95-7.66-62.5-21.39-81.79-13.41-18.84-30.08-4.66-45.48,5.2-22.75,14.55-46.37,17.35-71.12,26.73Z"/>
  <path class="cls-2" d="M287.16,838.07c-3.56-43.23-36.13-79.28-43.21-122.07-8.59-51.92,21.58-102.02,54.48-143.1,18.37-22.93,37.98-44.83,57.59-66.71,1.25-1.39,2.6-2.85,4.4-3.35,2.68-.75,5.41,.82,7.69,2.42,27.18,18.99,44.78,51.04,46.19,84.17,1.15,26.85-7.65,52.97-13.21,79.26-8.9,42.02-9.59,85.76-2.02,128.04,4.34,24.23,11.17,50.2,.9,72.57-5.74,12.52-16.19,22.15-26.38,31.43-20.81,18.96-41.63,37.92-62.44,56.88-8.35,7.6-25.77,22.18-38.58,16.8-14.1-5.92-7.84-22.9-5.35-35.64,6.56-33.54,22.81-65.75,19.93-100.69Z"/>
  <path class="cls-4" d="M86.01,657.55c-4.81-4.71-9.78-9.66-12.02-16.02-3.81-10.82,1.22-22.66,7.12-32.5,19.66-32.77,49.79-58.33,69.06-91.33,14.69-25.16,22.51-53.64,34.08-80.38,23.53-54.37,63.18-101.64,112.62-134.28,11.82-7.8,24.66-14.94,38.75-16.36,10.63-1.07,22.02,1.07,31.56-3.74,7.24-3.65,13.23-11.18,21.32-10.76,4.3,.22,8.11,2.75,11.6,5.28,15,10.91,28.69,23.62,40.67,37.79,5.94,7.02,11.65,14.84,12.92,23.94,1.62,11.6-4.26,22.9-11.02,32.46-12.78,18.08-29.26,33.21-43.14,50.46-13.88,17.25-25.47,37.75-25.7,59.89-.26,24.74,13.64,49.02,8.54,73.23-3.82,18.12-17.5,32.21-29.28,46.5-34.5,41.82-44.85,89.47-66.97,137.02-7.87,16.91-22.55,40.78-38.23,51.14-25.76,17.01-56.28-28.97-73.43-45.75-29.49-28.86-58.97-57.73-88.46-86.59Z"/>
  <path class="cls-3" d="M153.79,806.63c-4.64,28.81,17.78,54.18,38.34,74.9,20.56,20.71,42.59,46.68,36.99,75.32-2.38,12.18-9.78,23.82-7.79,36.08,26.35-13.97,49.89-33.19,68.85-56.21,7.9-9.59,15.28-20.58,15.87-32.99,.93-19.66-14.82-35.43-26.31-51.4-14.57-20.24-23.13-43.87-29.61-67.76-3.28-12.11-7.18-62.19-20.88-65-13.51-2.78-34.65,29.68-42.69,38.04-13.66,14.2-29.46,28.57-32.76,49.04Z"/>
  <path class="cls-1" d="M429.47,268.06c-.34-18.09-18.04-30.07-32.92-40.36-33.09-22.9-61.69-53.3-78.33-89.94-10.84-23.86-16.49-49.92-28.41-73.26-11.71-22.92-29.13-42.48-48.01-59.98-12.85-11.91-26.84-23.21-43.35-29.05-16.52-5.84-36.1-5.45-50.31,4.8-20.53,14.81-23.52,45.53-14.05,69.01,9.47,23.47,28.39,41.59,46.13,59.64,17.75,18.05,35.47,37.9,41.36,62.52,5.92,24.7-.93,50.49-.98,75.89-.09,41.04,18.71,81.74,50.02,108.27,31.28,26.51,68.5,17.36,101.18-2.51,23.28-14.15,58.19-57.48,57.67-85.02Z"/>
  <path class="cls-2" d="M379.01,243.18c-18.52,19.06-37.93,38.71-62.88,47.87-28.39,10.43-59.78,5.81-89.96,7.88-20.37,1.39-40.85,5.89-61.01,2.7-35.45-5.61-63.05-33.82-82.93-63.71-19.88-29.89-35.13-63.27-59.97-89.18-5.91-6.17-12.67-12.49-14.05-20.92-.9-5.48,.67-11.04,2.42-16.31,8.91-26.85,23.17-51.92,41.68-73.31,11.03-12.74,24.18-25.45,26.43-42.14,2.08-15.44-5.84-31.15-2.75-46.42,2.84-14.09,14.84-24.99,28.25-30.17,13.41-5.18,28.15-5.53,42.52-5.22,63.45,1.4,126.05,14.62,187.47,30.6,39.36,10.24,81.68,23.93,104.26,57.75,4.98,7.46,8.87,16,8.95,24.97,.17,20.93-18.12,36.68-21.78,56.8-3.65,20.07,9.35,40.04-1.17,58.34-8.44,14.68-20.6,19.81-24.29,38.35-5.15,25.88-1.29,41.66-21.18,62.12Z"/>
</svg>